<?xml version="1.0" encoding="utf-8"?>
<!-- Generator: Adobe Illustrator 16.0.0, SVG Export Plug-In . SVG Version: 6.00 Build 0)  -->
<!DOCTYPE svg PUBLIC "-//W3C//DTD SVG 1.1//EN" "http://www.w3.org/Graphics/SVG/1.1/DTD/svg11.dtd">
<svg version="1.1" id="Layer_1" xmlns="http://www.w3.org/2000/svg" xmlns:xlink="http://www.w3.org/1999/xlink" x="0px" y="0px"
	 width="890px" height="550px" viewBox="0 0 890 550" enable-background="new 0 0 890 550" xml:space="preserve">
<path id="kalimantan" fill="#010202" d="M738.54,331.99l-2.311,8.68L723.7,344.9l-3.75-4.4l-1.82,0.5l3.4,13.119l5.09,0.57
	l6.79,2.57v2.57l3.109-0.57l4.53-6.27v-5.131l2.55-5.129l2.83,0.569l-3.399-7.13l-0.521-4.59L738.54,331.99L738.54,331.99z"/>
<path id="papua_new_guinea" fill="#010202" d="M809.62,355.88l-0.37,24.44l3.52-0.19l4.63-5.41l3.891,0.19l2.5,2.24l0.83,6.899
	l7.96,4.2l2.04-0.75v-2.52l-6.391-5.32l-3.149-7.28l2.5-1.21l-1.851-4.01l-3.699-0.09l-0.931-4.291l-9.81-6.619L809.62,355.88
	L809.62,355.88z"/>
<path id="mexico" fill="#010202" d="M94.351,233.02l4.829,15.21l-2.25,1.26l0.25,3.02l4.25,3.27v6.05l5.25,5.04l-2.25-14.86l-3-9.83
	l0.75-6.8l2.5,0.25l1,2.27l-1,5.79l13,25.44v9.069l10.5,12.341l11.5,5.29l4.75-2.771l6.75,5.54l4-4.029l-1.75-4.541l5.75-1.76
	l1.75,1.01l1.75-1.76h2.75l5-8.82l-2.5-2.27l-9.75,2.27l-2.25,6.551l-5.75,1.01l-6.75-2.77l-3-9.57l2.271-12.07l-4.64-2.89
	l-2.21-11.59L134,246.58l-3.38,3.43l-3.88-2.07l-1.521-7.73l-15.37-1.61l-7.939-5.97L94.351,233.02L94.351,233.02z"/>
<path id="estonia" fill="#010202" d="M474.63,151.25l-5.6-0.2l-3.551,2.17l-0.05,1.61l2.3,2.17l7.15,1.21L474.63,151.25
	L474.63,151.25z"/>
<path id="algeria" fill="#010202" d="M430.74,235.08l-4.08-1.37l-16.98,3.19l-3.7,2.81l2.261,11.67l-6.75,0.27l-4.061,6.53
	l-9.67,2.32l0.03,4.75l31.85,24.35l5.431,0.461l18.109-14.15l-1.81-2.28l-3.4-0.46l-2.04-3.42V255.6l-1.359-1.37l0.229-3.65
	l-3.62-3.65l-0.45-3.88l1.58-1.14l-0.68-4.11L430.74,235.08L430.74,235.08z"/>
<path id="morocco" fill="#010202" d="M405.149,239.87H393.6l-2.26,5.02l-5.21,2.51l-4.3,11.64l-8.38,5.02l-11.771,19.39l11.55-0.229
	l0.45-5.7h2.94v-7.76h10.189l0.23-10.04l9.74-2.28l4.08-6.62l6.34-0.23L405.149,239.87L405.149,239.87z"/>
<path id="mauretania" fill="#010202" d="M361.76,284.25l2.18,2.85l-0.449,12.32l3.17-2.28l2.26-0.46l3.17,1.141l3.62,5.02l3.4-2.279
	l16.529-0.23l-4.08-27.61l4.38-0.02l-8.159-6.25l0.01,4.06l-10.33,0.01l-0.05,7.75l-2.971-0.01l-0.38,5.721L361.76,284.25
	L361.76,284.25z"/>
<path id="senegal" fill="#010202" d="M366.979,297.91l-3.939,2.859l-0.9,1.601l-0.279,1.6l1.449,1.04l4.84-0.07l3.11-0.84
	l0.351,1.53l-0.28,2.021l2.97,1.459l0.62,0.7l3.94,0.14l0.14-1.739l-3.601-4.32l-4.01-5.43l-2.49-1.04L366.979,297.91
	L366.979,297.91z"/>
<path id="gambia" fill="#010202" d="M363.75,305.93l-0.13,1.11l6.92-0.101l0.35-1.029l-0.149-1.041l-1.99,0.811L363.75,305.93
	L363.75,305.93z"/>
<path id="casamance" fill="#010202" d="M363.649,307.81l1.24,3.011l0.69-1.86l8.41,0.88l-3.641-1.87L363.649,307.81L363.649,307.81z
	"/>
<path id="bissau" fill="#010202" d="M365.46,312.12l1.4,2.77l3.93-3.38l0.04-1.04l-4.63-0.67L365.46,312.12L365.46,312.12z"/>
<path id="guinee" fill="#010202" d="M367.28,315.529l3.04,4.681l3.96-3.44l4.06-0.18l3.38,4.49l2.87,1.89l1.08-2.1l0.96-0.54
	l-0.07-4.62l-1.91-5.479l-5.859,0.649l-7.25-0.58l-0.04,1.86L367.28,315.529L367.28,315.529z"/>
<path id="sierra_leone" fill="#010202" d="M370.79,320.72l5.649,5.46l4.03-4.89l-2.52-3.95l-3.471,0.35L370.79,320.72L370.79,320.72
	z"/>
<path id="liberia" fill="#010202" d="M377.03,326.779l10.979,7.341l-0.26-5.561l-3.32-3.909l-3.24-2.871L377.03,326.779
	L377.03,326.779z"/>
<path id="ivoire" fill="#010202" d="M388.93,334.34l4.28-3.03l5.32-0.93l5.43,1.17l-2.771-4.19l-0.81-2.56l0.81-7.569l-4.85,0.229
	l-2.2-2.101l-4.62,0.121l-2.199,0.35l0.229,5.119l-1.16,0.471L385,323.98l3.58,4.189L388.93,334.34L388.93,334.34z"/>
<path id="mali" fill="#010202" d="M376.32,303.43l3.079-2.109l17.12-0.101l-3.96-27.54l4.521-0.13l21.87,16.69l2.939,0.42
	l-1.109,9.279l-13.75,1.25l-10.61,7.92l-1.93,5.42l-7.37,0.311l-1.88-5.41l-5.65,0.4l0.22-1.77L376.32,303.43L376.32,303.43z"/>
<path id="burkina" fill="#010202" d="M407.45,301.87l3.64-0.29l5.97,8.439l-5.54,4.18l-4.01-1.029l-5.39,0.07l-0.87,3.16
	l-4.521,0.22l-1.239-1.69l1.6-5.14L407.45,301.87L407.45,301.87z"/>
<path id="niger" fill="#010202" d="M417.75,309.59l2.55-0.061l2.3-3.449l3.86-0.69l4.109,2.511l8.771,0.25l6.78-2.761l2.55-2.19
	l0.189-2.879l4.73-4.771l1.25-10.53l-3.11-6.52l-7.96-1.94l-18.42,14.36l-2.609-0.25l-1.12,9.97l-9.4,0.94L417.75,309.59
	L417.75,309.59z"/>
<path id="ghana" fill="#010202" d="M401.2,324.64l1.12,2.63l2.92,4.58l1.62-0.06l4.42-2.511l-0.311-14.289l-3.42-1l-4.79,0.129
	L401.2,324.64L401.2,324.64z"/>
<path id="togo" fill="#010202" d="M412.08,328.84l2.68-1.57l-0.06-10.35l-1.74-2.82l-1.12,0.94L412.08,328.84L412.08,328.84z"/>
<path id="benin" fill="#010202" d="M415.57,327.08h2.119l0.12-6.021l2.681-3.89l-0.12-6.77l-2.431-0.061l-4.17,3.26l1.74,3.32
	L415.57,327.08L415.57,327.08z"/>
<path id="nigeria" fill="#010202" d="M418.43,326.96l3.92,0.19l4.73,5.27l2.3,0.63l1.8-0.88l2.74-0.38l0.93-3.82l3.73-2.45
	l4.04-0.189l7.399-13.61l-0.12-3.069l-3.42-2.631l-6.84,3.01l-9.149-0.129l-4.36-2.761l-3.11,0.69l-1.62,2.82l-0.119,7.959
	l-2.61,3.7L418.43,326.96L418.43,326.96z"/>
<path id="tunisia" fill="#010202" d="M431.77,234.92l5.53-2.23l1.82,1.18l0.069,1.439l-0.85,1.11l0.13,1.97l0.851,0.46v3.54
	l-0.98,1.64l0.13,1.05l3.71,1.31l-2.99,4.65l-1.17-0.07l-0.199,3.74l-1.301,0.2l-1.109-0.98l0.26-3.8l-3.64-3.54l-0.46-3.08
	l1.76-1.38L431.77,234.92L431.77,234.92z"/>
<path id="libya" fill="#010202" d="M436.91,255.62l1.56-0.26l0.46-3.6h0.78l3.189-5.24l7.87,2.29l2.15,3.34l7.74,3.54l4.029-1.7
	l-0.39-1.7l-1.76-1.7l0.2-1.18l2.859-2.42h5.66l2.15,2.88l4.55,0.66l0.59,36.89l-3.38-0.13l-20.42-10.62l-2.21,1.25l-8.391-2.1
	l-2.279-3.01l-3.32-0.46l-1.69-3.01L436.91,255.62L436.91,255.62z"/>
<path id="egypt" fill="#010202" d="M478.79,250.65l2.67,0.07l5.2,1.44l2.47,0.07l3.06-2.56h1.431l2.6,1.44h3.29l0.59-0.04l2.08,5.98
	l0.59,1.93l0.55,2.89l-0.979,0.72l-1.69-0.85l-1.949-6.36l-1.761-0.13l-0.13,2.16l1.17,3.74l9.37,11.6l0.2,4.98l-2.73,3.149
	l-25.64-0.29L478.79,250.65L478.79,250.65z"/>
<path id="chad" fill="#010202" d="M449.649,303.59l0.131-2.95l4.739-4.61l1.271-11.319l-3.16-6.04l2.21-1.13l21.4,11.149
	l-0.13,10.94l-3.771,3.21v5.641l2.47,4.779h-4.359l-7.221,7.141l-0.189,2.159l-5.33-0.069l-0.07,0.979l-3.04-0.399l-2.08-3.931
	l-1.56-0.77l0.2-1.2l1.96-1.5v-7.02l-2.71-0.42l-3.271-2.431L449.649,303.59L449.649,303.59L449.649,303.59z"/>
<path id="sudan" fill="#010202" d="M477.01,300.02l0.18-11.83l2.46,0.07l-0.279-6.57l25.8,0.23l3.69-3.721l7.96,12.73l-4.36,5.141
	v7.85l-6.86,14.75l-2.359,1.04l0.75,4.11h2.939l3.99,5.789l-3.2,0.41l-0.82,1.49l-0.079,2.15l-9.601-0.17L496.24,332l-6.71-0.38
	l-12.32-12.681l1.229-0.74l0.33-2.979l-2.949-1.739l-2.69-5.311l0.15-4.939L477.01,300.02L477.01,300.02z"/>
<path id="cameroon" fill="#010202" d="M434.68,331.87l3.22,2.96l-0.229,4.58l17.66-0.41l1.439-1.62l-5.06-5.45l-0.75-1.97l3.22-6.03
	l-2.189-4l-1.841-0.99v-2.029l2.131-1.391l0.119-6.32l-1.689-0.189l-0.03,3.32l-7.42,13.85l-4.54,0.23l-3.109,2.14L434.68,331.87
	L434.68,331.87z"/>
<path id="eritrea" fill="#010202" d="M513.57,302.29l-0.25-5.89l3.96-4.621l1.069,0.82l1.95,6.521l9.36,6.97l-1.7,2.09l-6.85-5.89
	H513.57L513.57,302.29z"/>
<path id="djibouti" fill="#010202" d="M528.34,309.13l-0.57,3.36l3.96-0.061l0.061-4.939l-1.45-0.891L528.34,309.13L528.34,309.13z"
	/>
<path id="ethiopia" fill="#010202" d="M506.35,319.35l7.28-16.199l7.23,0.039l6.409,5.57l-0.45,4.59h4.971l0.51,2.76l8.04,4.811
	l4.96,0.25l-9.43,10.13l-12.95,3.99h-3.21l-5.72-4.88l-2.261-0.95l-4.38-6.45l-2.89,0.04l-0.34-2.96L506.35,319.35L506.35,319.35z"
	/>
<path id="somaliland" fill="#010202" d="M532.6,312.63l4.08,2.78l1.21-0.061l10.13-3.479l1.15,3.71l-0.81,3.13l-2.19,1.739
	l-5.47-0.35l-7.83-4.81L532.6,312.63L532.6,312.63z"/>
<path id="soqotra" fill="#010202" d="M556.479,307.24l2.131,2.38l2.88-1.74l1.04-0.351l-1.32-1.279l-2.53,0.75L556.479,307.24
	L556.479,307.24z"/>
<path id="somalia" fill="#010202" d="M548.83,311.64l4.37-1.68l1.55,0.93l-0.17,3.88l-4.03,11.48l-21.81,23.359l-2.53-1.739
	l-0.17-9.86l3.279-3.77l6.961-2.15l10.21-10.779l2.67-2.381l0.75-3.48L548.83,311.64L548.83,311.64z"/>
<path id="centrafrique" fill="#010202" d="M452.52,331.64l4.66,5.04l1.84-2.38l2.931,0.12l0.63-2.32l2.88-1.8l5.979,4.12l3.45-3.42
	l13.391,0.59l-12.42-12.82l1.67-1.039l0.229-2.261l-2.82-1.33h-4.14l-6.67,6.61l-0.23,2.72l-5.29-0.17l-0.17,1.16l-3.45-0.351
	l-3.109,5.91L452.52,331.64L452.52,331.64z"/>
<path id="gabon" fill="#010202" d="M443.25,340.22l-0.12,2.49l-5.64-0.12l-3.45,6.67l8.109,8.87l2.011-1.681l-0.061-1.739
	l-1.38-0.64v-1.221l3.11-1.97l2.76,2.09l3.05,0.06l-0.06-10.489l-4.83-0.229l-0.061-2.201L443.25,340.22L443.25,340.22z"/>
<path id="equatorial_guinea" fill="#010202" d="M437.85,340.279l-0.06,1.391l4.54,0.23l-0.061-1.57L437.85,340.279L437.85,340.279z"
	/>
<path id="congo" fill="#010202" d="M447.86,340.109l-0.061,1.451l4.78,0.119l0.17,12.41l-4.37-0.12l-2.53-1.97l-1.96,1.1
	l-0.09,0.551l1.01,0.489l0.29,2.55l-2.7,2.32l0.58,1.221l2.99-2.32h1.44l0.46,1.39l1.899,0.81l6.101-5.16l-0.12-3.77l1.27-3.07
	l3.91-2.899l1.05-9.81l-2.779,0.01l-3.221,4.41L447.86,340.109L447.86,340.109z"/>
<path id="cabinda" fill="#010202" d="M443.41,360.82l1.739,2.26l2.25-2.131l-0.659-2.209l-0.561-0.041L443.41,360.82L443.41,360.82z
	"/>
<path id="drc" fill="#010202" d="M446.24,363.3l10.31-0.181l2.09,2.971l-0.08,2.189l0.771,0.701h5.12l1.47-2.891h2.09l0.851,0.859
	l2.869-0.08l0.851,10.08l4.96,0.16v0.78l13.33,6.011l0.62,1.17h2.79l-0.311-4.221l-5.04-2.42l0.311-3.199l2.17-5.08l4.96-0.16
	l-4.26-14.141l0.079-6.01l6.74-10.54l0.08-1.479L498,337.27l0.04-2.859l-1.23-0.11l-1.239-1.58l-20.351-0.92l-3.729,3.63l-6.11-4.02
	l-2.15,1.32l-1.56,13.129l-3.86,2.98l-1.159,2.641l0.21,3.909l-6.96,5.69l-1.851-0.84l0.25,1.09L446.24,363.3L446.24,363.3z"/>
<path id="rwanda" fill="#010202" d="M494.68,347.49l2.811,2.59l-0.12,2.77l-4.36,0.09v-3.06L494.68,347.49L494.68,347.49z"/>
<path id="burundi" fill="#010202" d="M493.07,353.8l4.27-0.09l-1.11,3.739l-1.08,0.94h-1.319l-0.94-2.53L493.07,353.8L493.07,353.8z
	"/>
<path id="uganda" fill="#010202" d="M495.16,346.68l3.029,2.84l1.9-1.209l5.14-0.841l0.881,0.091l0.33-1.951l2.899-6.1l-2.439-5.08
	l-7.91,0.051l-0.05,2.09l1.06,1.02l-0.16,2.09L495.16,346.68L495.16,346.68z"/>
<path id="kenya" fill="#010202" d="M507.689,334.109l2.66,5.19l-3.189,6.69l-0.42,2.029l15.93,9.85l4.94-7.76l-2.5-2.029
	l-0.051-10.221l3.13-3.42l-4.989,1.66l-3.771,0.051l-5.899-4.98l-1.86-0.801l-3.45,0.32l-0.609,1.021L507.689,334.109
	L507.689,334.109z"/>
<path id="tanzania" fill="#010202" d="M507.43,379.01l17.47-2.141l-3.93-7.6l-0.21-7.279l1.271-3.48l-16.62-10.439l-5.21,0.859
	l-1.811,1.34l-0.16,3.051l-1.17,4.229l-1.22,1.45l-1.75,0.16l3.35,11.609l5.471,2.57l3.77,0.109L507.43,379.01L507.43,379.01z"/>
<path id="zambia" fill="#010202" d="M471.41,392.29l3.17,4.399l4.91,0.301l1.739,0.959l5.141,0.061l4.43-6.21l12.38-5.54l1.08-4.88
	l-1.44-6.99l-6.46-3.68l-4.31,0.3l-2.15,4.76l0.061,2.17l5.08,2.471l0.3,5.369l-4.37,0.24l-1.08-1.81l-12.14-5.181l-0.36,3.98
	l-5.74,0.18L471.41,392.29L471.41,392.29z"/>
<path id="angola" fill="#010202" d="M445.479,364.3l3.41,12.729l-0.08,4.021l-4.989,5.36l-0.75,8.709l19.199,0.171l6.24,2.26
	l5.15-0.67l-3-3.761l0.01-10.739l5.9-0.25v-4.19l-4.79-0.199l-0.96-9.92l-2.021,0.029l-1.09-0.98l-1.19,0.061l-1.579,3.061h-6.08
	l-1.41-1.42l0.42-2.011l-1.66-2.43L445.479,364.3L445.479,364.3z"/>
<path id="malawi" fill="#010202" d="M504.02,386.99l3.11,3.25l-0.061,4.16l0.601,1.75l4.13-4.461l-0.48-5.67l-2.21-1.689l-1.97-9.95
	l-3.41-0.12l1.551,7.17L504.02,386.99L504.02,386.99z"/>
<path id="mozambique" fill="#010202" d="M498.03,420.869l2.689,2.23l6.34-3.859l1.021-5.73v-9.46l10.17-8.319l1.74,0.06l6.159-5.91
	l-0.96-12.181l-16.329,2.061l0.479,3.68l2.81,2.17l0.66,6.631l-5.5,5.369l-1.319-3.01l0.239-3.98l-3.17-3.439l-7.779,3.62
	l7.239,3.681l0.24,10.729l-4.79,7.11L498.03,420.869L498.03,420.869z"/>
<path id="zimbabwe" fill="#010202" d="M481.52,399.89l8.971,10.13l6.88,1.75l4.609-7.229l-0.359-9.58l-7.48-3.86l-2.81,1.27
	l-4.19,6.391l-5.8-0.061L481.52,399.89L481.52,399.89z"/>
<path id="namibia" fill="#010202" d="M453.41,429.55l3.35,0.24l1.97,1.99l4.67,0.06l1.141-13.26v-8.68l2.99-0.601l1.14-9.101
	l7.6-0.239l2.69-2.229l-4.55-0.181l-6.16,0.84l-6.64-2.409h-18.66l0.479,5.299l6.22,9.16l-1.079,4.7l0.06,2.47L453.41,429.55
	L453.41,429.55z"/>
<path id="botswana" fill="#010202" d="M465.37,418.82l2.149,0.66l-0.3,6.149l2.21,0.3l5.08-4.58l6.101,0.66l1.619-4.1l7.721-7.051
	l-9.271-10.67l-0.12-1.75l-1.02-0.3l-2.811,2.591l-7.3,0.18l-1.02,9.1l-2.87,0.66L465.37,418.82L465.37,418.82z"/>
<path id="swaziland" fill="#010202" d="M497.729,421.59l-2.51,0.42l-1.08,2.95l1.92,1.75h2.33l1.97-2.83L497.729,421.59
	L497.729,421.59z"/>
<path id="lesotho" fill="#010202" d="M484.27,432.979l3.05-2.35l1.44,0.06l1.74,2.17l-0.181,2.171l-2.93,1.079v0.841l-3.229-0.181
	l-0.78-2.35L484.27,432.979L484.27,432.979z"/>
<path id="south_africa" fill="#010202" d="M491.02,411.22l-7.899,7.3l-1.88,4.51l-6.261-0.779l-5.21,4.63l-3.46-0.34l0.28-6.4
	l-1.23-0.43L464.5,432.8l-6.141-0.06l-1.85-2.181l-2.71-0.029l2.47,7.09l4.41,4.17l-3.149,3.67l2.039,4.6l4.721,1.801l3.76-3.2
	l10.77,0.06l0.771-0.96l4.78-0.84l16.17-16.1l-0.061-5.07l-1.729,2.24h-2.59l-3.15-2.641l1.6-3.98l2.75-0.559l-0.25-8.181
	L491.02,411.22L491.02,411.22z M487.229,429.72l1.511-0.06l2.449,2.66l-0.069,3.079l-2.87,1.45l-0.18,1.021l-4.381,0.05l-1.369-3.3
	l1.25-2.42L487.229,429.72L487.229,429.72z"/>
<path id="greenland" fill="#010202" d="M277.99,57.66l-1.36,2.17l2.45,2.45l-1.09,2.45l3.54,4.62l4.35-1.36l5.71-0.54l6.53,7.07
	l4.35,11.69l-3.53,7.34l4.891-0.82l2.72,1.63l0.271,3.54l-5.98,0.27l3.26,3.26l4.08,0.82l-8.97,11.96l-1.09,7.34l1.899,5.98
	l-1.359,3.54l2.45,7.61l4.619,5.17l1.36-0.27l2.99-0.82l0.27,4.35l1.9,2.72l3.53-0.271l2.72-10.06l8.16-10.06l12.239-4.89l7.61-9.52
	l3.53,1.63h7.34l5.98-5.98l7.34-2.99l0.819-4.62l-4.62-4.08l-4.079-1.36l-2.181-5.71l5.17-2.99l8.16,4.35l2.72-2.99l-4.35-2.45
	l9.25-12.51l-1.63-5.44l-4.35-0.27l1.63-4.89l5.439-2.45l11.15-9.79l-3.26-3.53l-12.511,1.09l-6.529,6.53l3.81-8.43l-4.35-1.09
	l-2.45,4.35l-3.53-2.99l-9.79,1.09l2.72-4.35l16.04-0.54l-4.08-5.44L352.5,35.92l-7.07,1.09l0.271,3.54l-7.34-2.45l0.27-2.45
	l-5.17,1.09l-1.09,2.72l5.439,1.9l-5.71,4.08l-4.08-4.62l-5.71-1.63l-0.819,4.35h-5.71l-2.181-4.62l-8.97-1.36l-4.89,2.45
	l-0.271,3.26l-6.25-0.82l-3.81,1.63l0.27,3.81v1.9l-7.069,1.36l-3.261-2.17l-2.18,3.53l3.26,3.54l6.8-0.82l0.54,2.18l-5.17,2.45
	L277.99,57.66L277.99,57.66z"/>
<path id="disko" fill="#010202" d="M299.75,100.08l1.63,2.45l-0.82,2.99h-1.63l-2.18-2.45l0.54-1.9L299.75,100.08L299.75,100.08z"/>
<path id="milne" fill="#010202" d="M367.729,93.28l4.62,1.36l-0.27,3.81L367.189,96l-1.09-1.36L367.729,93.28L367.729,93.28z"/>
<path id="australia" fill="#010202" d="M718.03,435.57l-0.351,25.38l-3.899,2.859l-0.351,2.5l5.32,3.57l13.13-2.5h6.74l2.479-3.58
	l14.9-2.86l10.64,3.221l-0.71,4.29l1.42,4.29l8.16-1.431l0.35,2.141l-5.319,3.93l1.77,1.43l3.9-1.43l-1.061,11.8l7.45,5.721
	l4.261-1.431l2.13,2.141l12.42-1.79l11.71-18.95l4.26-1.07l8.51-15.729l2.13-13.58l-5.319-6.79l2.13-1.431l-4.26-13.229l-4.61-3.22
	l0.71-17.871l-4.26-3.219l-1.061-10.011h-2.13l-7.1,23.591l-3.9,0.359l-8.87-8.939l4.971-13.23l-9.221-1.79l-10.29,2.86l-2.84,8.22
	l-4.609,1.069l-0.351-5.72l-18.8,11.44l0.35,4.289l-2.84,3.931h-7.1l-15.26,6.431L718.03,435.57L718.03,435.57z"/>
<path id="tasmania" fill="#010202" d="M782.6,503.85l-1.77,7.15l0.35,5l5.32-0.36l6.03-9.29L782.6,503.85L782.6,503.85z"/>
<path id="new_zealand_north_island" fill="#010202" d="M869.88,489.55l1.06,11.8l-1.42,5.36l-5.319,3.93l0.35,4.65v5l1.42,1.79
	l14.55-12.511v-2.859h-3.55l-4.97-16.8L869.88,489.55L869.88,489.55z"/>
<path id="new_zealand_south_island" fill="#010202" d="M859.24,515.29l2.84,5.359l-7.811,7.511l-0.71,3.93l-5.319,0.71l-8.87,8.22
	l-8.16-3.93l-0.71-2.86l14.899-6.43L859.24,515.29L859.24,515.29z"/>
<path id="sumatra" fill="#010202" d="M679.34,325.16l-0.28,2.279l6.79,11.41h1.98l14.149,23.67l5.66,0.57l2.83-8.27l-4.53-2.851
	l-0.85-4.56L679.34,325.16L679.34,325.16z"/>
<path id="east_malaysia" fill="#010202" d="M721,340.51l3.02,3.49l11.58-4.01l2.29-8.84l5.16-0.371l4.72-3.42l-6.12-4.459
	l-1.399-2.451l-3.021,5.57l1.11,3.2l-1.84,2.67l-3.47-0.89l-8.41,6.17l0.22,3.57L721,340.51L721,340.51z"/>
<path id="brunei" fill="#010202" d="M736.63,326.84l-2.88,3.49l2.36,0.74l1.329-1.86L736.63,326.84L736.63,326.84z"/>
<path id="sulawesi" fill="#010202" d="M746.39,356.699l2.26,2.771l-1.47,4.16v0.79h3.34l1.181-10.4l1.08,0.301l1.96,9.5l1.87,0.5
	l1.77-4.061l-1.77-6.141l-1.471-2.67l4.62-3.369l-1.08-1.49l-4.42,2.87h-1.18l-2.16-3.17l0.69-1.39l3.64-1.781l5.5,1.681l1.67-0.101
	l4.13-3.859l-1.67-1.68l-3.83,2.97h-2.46l-3.729-1.78l-2.65,0.1l-2.95,4.75l-1.87,8.221L746.39,356.699L746.39,356.699z"/>
<path id="maluku" fill="#010202" d="M771.05,338.09l-1.87,4.55l2.95,3.86h0.98l1.279-2.57l0.69-0.89l-1.28-1.39l-1.87-0.69
	L771.05,338.09L771.05,338.09z"/>
<path id="seram" fill="#010202" d="M776.85,353.04l-4.03,0.89l-1.18,1.29l0.98,1.681l2.649-0.99l1.67-0.99l2.46,1.98l1.08-0.891
	l-1.96-2.38L776.85,353.04L776.85,353.04z"/>
<path id="java" fill="#010202" d="M710.03,365.91l-2.75,1.88l0.59,1.579l8.75,1.98l4.42,0.79l1.87,1.98l5.01,0.399l2.36,1.98
	l2.159-0.5l1.971-1.78l-3.641-1.68l-3.14-2.67l-8.16-1.98L710.03,365.91L710.03,365.91z"/>
<path id="bali" fill="#010202" d="M738.63,374.52l-2.16,1.19l1.28,1.39l3.14-1.189L738.63,374.52L738.63,374.52z"/>
<path id="lombok" fill="#010202" d="M742.36,373.63l0.39,1.88l2.26,0.59l0.88-1.09l-0.979-1.49L742.36,373.63L742.36,373.63z"/>
<path id="sumba" fill="#010202" d="M747.77,378.58l-2.75,0.4l2.46,2.079h1.96L747.77,378.58L747.77,378.58z"/>
<path id="flores" fill="#010202" d="M748.55,375.311l-0.59,1.189l4.42,0.689l3.439-1.979l-1.96-0.591l-3.14,0.891l-1.18-0.99
	L748.55,375.311L748.55,375.311z"/>
<path id="timor" fill="#010202" d="M763,376.01l-5.11,4.26l0.49,1.09l2.16-0.399l2.55-2.38l5.01-0.69l-0.979-1.68L763,376.01
	L763,376.01z"/>
<path id="new_ireland" fill="#010202" d="M837.34,356.59l-0.88,1.25l4.81,4.26l0.66,2.5l1.311-0.15l0.149-2.569l-1.46-1.319
	L837.34,356.59L837.34,356.59z"/>
<path id="new_britain" fill="#010202" d="M839.75,362.619l-0.95,0.221l-0.58,2.57l-1.82,1.18l-5.47,0.96l0.22,2.06l5.761-0.289
	l3.649-2.28l-0.22-3.97L839.75,362.619L839.75,362.619z"/>
<path id="bougainville" fill="#010202" d="M846.24,367.1l1.239,3.45l2.19,2.13l0.66-0.59l-0.22-2.279l-2.48-3.011L846.24,367.1
	L846.24,367.1z"/>
<path id="palawan" fill="#010202" d="M746.229,305.12l-0.859,1.64l-0.48,2.02l-4.779,6.07l0.289,1.25l2.011-0.29l6.21-6.939
	L746.229,305.12L746.229,305.12z"/>
<path id="negros" fill="#010202" d="M753.97,302.81l-0.1,5.011l1.819,1.83l0.671,3.56l1.819,0.39l0.86-2.22l-1.43-1.06l-0.381-6.261
	L753.97,302.81L753.97,302.81z"/>
<path id="cebu" fill="#010202" d="M759.14,304.74l-0.1,4.43l1.05,1.73l1.82-2.121l-0.48-3.85L759.14,304.74L759.14,304.74z"/>
<path id="samar" fill="#010202" d="M760.28,300.88l1.819,2.41l0.86,2.31h1.63l-0.29-3.949l-1.82-1.25L760.28,300.88L760.28,300.88z"
	/>
<path id="path7462" fill="#010202" d="M763.82,309.939l0.38,2.891l-3.351,2.699l-2.77,0.291l-2.96,3.18l0.1,1.449l2.771-0.869
	l1.909-1.25l1.631,4.14l2.869,2.021l1.15-0.391l1.05-1.25l-2.29-2.31l1.34-1.06l1.53,1.25l1.05-1.73l-1.05-2.12l-0.189-4.72
	L763.82,309.939L763.82,309.939z"/>
<path id="luzon" fill="#010202" d="M748.24,280.56l-2.58,1.83l-0.29,5.78l4.02,7.8l1.34,1.06l1.721-1.16l2.96,0.48l0.569,2.6
	l2.2,0.19l1.05-1.44l-1.34-1.829l-1.63-1.54l-3.439-0.381L751,290.96l2.1-3.181l0.19-2.789l-1.43-3.561L748.24,280.56L748.24,280.56
	z"/>
<path id="mindoro" fill="#010202" d="M749.58,297.8l0.76,2.7l1.34,0.87l0.96-1.25L751.11,298L749.58,297.8L749.58,297.8z"/>
<path id="hainan" fill="#010202" d="M716.689,277.76l-2.39,0.67l-1.72,2.12l1.43,2.79l2.101,0.189l2.39-2.119l0.57-2.79
	L716.689,277.76L716.689,277.76z"/>
<path id="taiwan" fill="#010202" d="M744.32,255.9l-3.54,2.7l-0.19,5.2l3.06,3.56l0.761-0.67L744.32,255.9L744.32,255.9z"/>
<path id="kyushu" fill="#010202" d="M760.09,224.01l-1.63,1.64l0.67,2.31l1.43,0.1l0.96,5.01l1.15,1.25l2.01-1.83l0.86-3.28
	l-2.49-3.56L760.09,224.01L760.09,224.01z"/>
<path id="shikoku" fill="#010202" d="M768.89,220.74l-2.77,2.6l-0.101,2.99l0.67,0.87l3.73-3.18l-0.29-3.18L768.89,220.74
	L768.89,220.74z"/>
<path id="honshu" fill="#010202" d="M765.06,214.57l-4.88,5.59l0.86,1.35l2.39,0.29l4.49-3.47l3.16-0.58l2.87,3.37l2.199-0.77
	l0.86-3.28l4.11-0.1l4.02-4.82l-2.1-8l-0.96-4.24l2.1-1.73l-4.78-7.22l-1.239,0.1l-2.58,2.89v2.41l1.149,1.35l0.38,6.36l-2.96,3.66
	l-1.72-1.06l-1.34,2.99l-0.29,2.79l1.05,1.64l-0.67,1.25l-2.2-1.83h-1.529l-1.341,0.77L765.06,214.57L765.06,214.57z"/>
<path id="hokkaido" fill="#010202" d="M773.29,171.03l-1.53,1.35l0.771,2.89l1.34,1.35l-0.101,4.43l-1.72,0.67l-1.34,2.99l3.92,5.39
	l2.58-0.87l0.479-1.35l-2.77-2.5l1.72-2.22l1.82,0.29l1.43,1.54l0.101-3.18l3.92-3.18l2.199-0.58l-1.819-3.08l-0.86-1.35l-1.43,0.96
	l-1.24,1.54l-2.68-0.58l-2.771-1.83L773.29,171.03L773.29,171.03z"/>
<path id="iturup" fill="#010202" d="M787.72,168.04l-2.68,3.76l0.189,1.83l1.341-0.58l3.149-3.95L787.72,168.04L787.72,168.04z"/>
<path id="urup" fill="#010202" d="M791.26,162.55l-0.96,2.6l0.1,1.73l1.631-1.06l1.529-3.08v-1.15L791.26,162.55L791.26,162.55z"/>
<path id="paramushir" fill="#010202" d="M796.899,139.62l-1.239,1.54l0.1,2.41l1.15-0.1l1.909-3.37L796.899,139.62L796.899,139.62z"
	/>
<path id="onekotan" fill="#010202" d="M794.61,145.5v4.24l1.34,0.48l0.96-1.54v-3.27L794.61,145.5L794.61,145.5z"/>
<path id="sakhalin" fill="#010202" d="M755.5,130.18l-0.09,6.17l7.739,11.95l2.771,10.4l4.88,9.25l1.91,0.67l1.63-1.35l0.76-2.22
	l-6.979-7.61l0.189-3.95l1.53-0.67l0.38-2.31l-13.67-19.36L755.5,130.18L755.5,130.18z"/>
<path id="madagascar" fill="#010202" d="M549.16,380.51l-2.13,5.061l-3.65,6.439l-6.39,0.46l-2.74,3.22l0.46,9.82l-3.96,4.6
	l0.46,7.82l3.35,3.83l3.96-0.46l3.96-2.92l-0.909-4.601l9.13-15.799l-1.83-1.99l1.83-3.83l1.979,0.609l0.61-1.529l-1.83-7.82
	l-1.07-3.221L549.16,380.51L549.16,380.51z"/>
<path id="guadeloupe" fill="#010202" d="M233.46,290.96l-1.5,0.62l0.53,1.33l1.76-1.15l-0.35-0.359L233.46,290.96L233.46,290.96z"/>
<path id="dominica" fill="#010202" d="M235.93,292.47l-0.88,1.87l1.061,1.42l1.319-1.15L235.93,292.47L235.93,292.47z"/>
<path id="martinique" fill="#010202" d="M238.93,297.62l-1.06,0.979l0.79,1.6l1.5-0.439L238.93,297.62L238.93,297.62z"/>
<path id="st._lucia" fill="#010202" d="M238.84,301.62l-0.71,1.51l1.15,1.24l1.5-0.8L238.84,301.62L238.84,301.62z"/>
<path id="st._vincent" fill="#010202" d="M238.93,305.439l-1.229,0.891l0.97,1.779l1.59-0.89L238.93,305.439L238.93,305.439z"/>
<path id="grenada" fill="#010202" d="M237.43,308.9l-1.149,1.149l0.439,0.71h1.41l0.44-1.16L237.43,308.9L237.43,308.9z"/>
<path id="trinidad" fill="#010202" d="M239.1,312.37l-1.06,0.979l-1.15,0.18v1.42l2.12,1.951l0.88-1.42l0.53-1.601l-0.18-1.33
	L239.1,312.37L239.1,312.37z"/>
<path id="puerto_rico" fill="#010202" d="M227.91,288.65l-2.64-0.891l-2.12,1.33l1.06,1.24l3.61,0.529L227.91,288.65L227.91,288.65z
	"/>
<path id="haiti-dominican_border" fill="#010202" d="M207.73,282.97l-1.67,1.71l1.909,0.78l0.28,2.39l-4.229,0.37l0.43,2.3
	l1.229,0.09l0.71-1.06l4.94,0.16l0.89,1.71l1.141-1.34l3.33-0.9l2.93,0.62l0.34-1.771l-5.28-3.449l-3.42-1.28L207.73,282.97
	L207.73,282.97z"/>
<path id="domincan_republic" fill="#010202" d="M219.97,288.029l-5.29-3.459l-2.5-0.851l-0.84,6l0.88,1.69l1.15-1.33l3.35-0.891
	l2.91,0.62L219.97,288.029L219.97,288.029z"/>
<path id="haiti" fill="#010202" d="M207.72,282.97l3.44,0.36l-0.41,4.22l-0.34,2.22l-4.01-0.22l-0.71,1.07l-1.23-0.091l-0.439-2.31
	l4.229-0.35l-0.26-2.4l-1.94-0.8L207.72,282.97L207.72,282.97z"/>
<path id="iceland" fill="#010202" d="M363.22,124.9l-1.96-1.11l-2.64,1.67l-2.271,2.1l0.061,1.17l2.939,0.37l-0.18,2.1l-1.04,1.05
	l0.25,0.68l2.94,0.19v3.4l4.229,0.74l2.51,1.42l2.82,0.12l4.84-2.41l3.74-4.94l0.06-3.34l-2.27-1.92l-1.9-1.61l-0.859,0.62
	l-1.29,1.67l-1.471-0.19l-1.47-1.61l-1.899,0.18l-2.761,2.29l-1.66,1.79l-0.92-0.8l-0.06-1.98l0.92-0.62L363.22,124.9L363.22,124.9z
	"/>
<path id="komsomolets" fill="#010202" d="M591.81,25.74l-2.239-1.39h-2.58l-0.521,1.56l-2.75,1.56l-2.07,0.69l-0.34,2.08l4.82,0.35
	L591.81,25.74L591.81,25.74z"/>
<path id="october" fill="#010202" d="M597.14,26.26l-1.21,2.6l-2.41-0.17l-3.79,2.78l-1.029,3.47h2.41l1.38-2.26l3.27,2.43
	l3.101-1.39l2.239-1.91l-0.859-2.95l-1.21-2.08L597.14,26.26L597.14,26.26z"/>
<path id="bolshevik" fill="#010202" d="M602.14,28.17l1.21,4.86l1.891,4.51l2.069-3.64l3.96-0.87v-2.6l-2.579-1.91L602.14,28.17
	L602.14,28.17z"/>
<path id="kotelny" fill="#010202" d="M696.62,20.39l2.689,2.26l1.91-0.79l0.561-3.17l-3.92-2.71l-2.58,1.7L689,18.25v2.83
	l-6.62,0.11v4.63l7.74,5.76l2.02-1.47l-0.45-4.07l4.94-1.24l-1.01-1.92l-1.79-1.81L696.62,20.39L696.62,20.39z"/>
<path id="novaya_sibir" fill="#010202" d="M703.8,17.68l1.79,3.39l6.96-0.79l1.91-2.49l-0.45-2.15l-1.91-0.79l-1.79,1.36l-5.16,1.13
	L703.8,17.68L703.8,17.68z"/>
<path id="lyakhovsky" fill="#010202" d="M703.35,30.9L699.87,30l-2.01,2.15l-0.9,2.94l4.71-0.45l3.59-1.81L703.35,30.9L703.35,30.9z
	"/>
<path id="wrangel" fill="#010202" d="M793.54,11.35l-2.92-0.9l-3.36,1.24l-1.68,2.49l2.13,2.83l5.61-2.49l1.119-1.24L793.54,11.35
	L793.54,11.35z"/>
<path id="sri_lanka" fill="#010202" d="M637.399,315.64l0.25,2.72l0.25,1.98l-1.47,0.25l0.74,4.45l2.21,1.239l3.43-1.979
	l-0.979-4.69l0.25-1.729l-3.19-2.96L637.399,315.64L637.399,315.64z"/>
<path id="cuba" fill="#010202" d="M177.71,274.51v1.27l5.32,0.1l2.51-1.46l0.39,1.07l5.221,1.27l4.64,4.189l-1.06,1.461l0.189,1.66
	l3.87,0.97l3.87-1.75l1.74-1.75l-2.511-1.271l-12.949-7.6l-4.54-0.49L177.71,274.51L177.71,274.51z"/>
<path id="bimini" fill="#010202" d="M196.47,266.72l-1.26-0.39l-0.1,2.43l1.55,1.56l1.06-1.56L196.47,266.72L196.47,266.72z"/>
<path id="andros" fill="#010202" d="M198.98,270.52l-1.74,0.97l1.64,2.34l0.87-1.17L198.98,270.52L198.98,270.52z"/>
<path id="inagua" fill="#010202" d="M204.59,272.27l-1.84-0.1l0.19,1.17l1.35,1.95l1.16-1.27L204.59,272.27L204.59,272.27z"/>
<path id="eleuthera" fill="#010202" d="M203.72,269.94l-3-1.27l-0.58-3.02l1.16-0.49l1.16,2.34l1.16,0.88L203.72,269.94
	L203.72,269.94z"/>
<path id="grand_bahama" fill="#010202" d="M200.82,263.8l-1.55-0.39l-0.29-1.95l-1.641-0.58l1.061-1.07l1.93,0.68l1.45,0.88
	L200.82,263.8L200.82,263.8z"/>
<path id="jamaica" fill="#010202" d="M195.79,287.18l-3.479,0.88v0.97l2.029,1.17h2.13l1.351-1.56L195.79,287.18L195.79,287.18z"/>
<path id="irian_jaya" fill="#010202" d="M788.79,346.93l-4.17,0.471l-2.681,1.959l1.11,2.24l4.54,0.84v0.84l-2.87,2.33l1.391,4.851
	l1.39,0.09l1.2-4.76h2.22l0.93,4.659l10.83,8.961l0.28,7l3.7,4.01l1.67-0.09l0.37-24.721l-6.29-4.379l-5.931,4.01l-2.13,1.31
	l-3.52-2.24l-0.09-7.09L788.79,346.93L788.79,346.93z"/>
<path id="alaska_1_" fill="#010202" d="M49.97,52.48l-8.39,1.99l1.73,9.45l9.13,2.49l0.489,1.99L39.36,72.63l-7.65,12.68l2.71,13.43
	l4.44,2.98l3.46-3.23l0.99,1.99l-4.2,4.97l-16.29,7.46l-10.37,2.49l-0.25,3.73l23.939-6.96l9.87-2.74l9.13-11.19l10.12-6.71
	l-5.18,8.7l5.68,0.75l9.63-4.23l1.73,6.96l6.66,1.49l6.91,6.71l0.489,4.97l-0.989,1.24l1.229,4.72h1.73l0.25-7.96h1.97l0.49,19.64
	l4.939-4.23l-3.46-20.39h-5.18l-5.68-7.21l27.89-47.25L86.73,33.81L55.88,39.78l-1.229,9.45l6.66,3.98l-2.471,6.47L49.97,52.48
	L49.97,52.48z"/>
<path id="banks" fill="#010202" d="M160.59,43.48l0.221,4.02l-7.98,8.27l2,6.7l5.76-1.56l3.33-4.92l8.42-3.13l6.87-0.45l-5.32-5.81
	l-2.659,2.01l-2-0.67l-1.11-2.46l-2.44-2.46L160.59,43.48L160.59,43.48z"/>
<path id="prince_patrick" fill="#010202" d="M171.01,31.64l-1.77,3.13l8.649,3.13l3.101-4.69l1.33,3.13h2.22l4.21-4.69l-5.1-1.34
	l-2-1.56l-2.66,2.68L171.01,31.64L171.01,31.64z"/>
<path id="eglinton" fill="#010202" d="M186.09,37.9l-6.87,2.9v2.23l8.87,3.35l-2,2.23l1.33,2.9l5.54-2.46h4.66l2.22,3.57l3.771-3.8
	l-0.891-3.58l-3.1,1.12l-0.44-4.47l1.551-2.68h-1.551l-2.439,1.56l-1.11,0.89l0.67,3.13l-1.77,1.34l-2.66-0.22l-0.67-4.02
	L186.09,37.9L186.09,37.9z"/>
<path id="mackenzie_king" fill="#010202" d="M195.18,30.97l-0.67,2.23l4.21,2.01l3.101-1.79l-0.22-1.34L195.18,30.97L195.18,30.97z"
	/>
<path id="king_christian" fill="#010202" d="M198.5,27.17l-3.1,1.12l0.22,1.56l6.87-0.45l-0.22-1.56L198.5,27.17L198.5,27.17z"/>
<path id="ellef_ringnes" fill="#010202" d="M213.36,30.97l-0.44,1.56l-1.109,1.56v2.23l4.21-0.67l4.43,3.8H222v-3.8l-4.43-4.92
	L213.36,30.97L213.36,30.97z"/>
<path id="amund_ringnes" fill="#010202" d="M224.67,35.44l1.771,2.01l-1.551,2.68l1.11,2.9l4.88-2.68v-2.01L228,34.99L224.67,35.44
	L224.67,35.44z"/>
<path id="axel_heiberg" fill="#010202" d="M231.1,30.3l0.221,3.57h5.99l1.55,1.34l-0.221,1.56l-5.319,0.67l3.77,5.14l5.101,0.89
	l7.09-3.13l-10.2-15.42l-3.1,2.01l0.22,2.68l-3.55-1.34L231.1,30.3L231.1,30.3z"/>
<path id="victoria" fill="#010202" d="M179.44,55.55l-8.42,2.23l-4.881,4.25l0.44,4.69l8.87,2.68l-2,4.47l-6.43-4.021l-1.771,3.35
	l4.21,2.9l-0.22,4.69l6.43,1.79l7.76-0.45l1.33-2.46l5.761,6.48l3.989-1.34l0.67-4.47l2.881,2.01l0.439-4.47l-3.55-2.23l0.22-14.07
	l-3.1-2.46l-3.32,4.47L179.44,55.55L179.44,55.55z"/>
<path id="prince_of_wales" fill="#010202" d="M206.49,65.38l-2.88-1.34l-1.55,2.01l3.1,4.92l0.22,4.69l6.65-4.02v-5.81l2.439-2.46
	l-2.439-1.79h-3.99L206.49,65.38L206.49,65.38z"/>
<path id="prescott" fill="#010202" d="M220.68,63.37l-4.659,3.8l1.109,4.69h2.88l1.33-2.46l2,2.01l2-0.22l5.32-4.47L220.68,63.37
	L220.68,63.37z"/>
<path id="cornwallis" fill="#010202" d="M220.23,55.99l-1.11,2.23l4.88,1.79l1.33-2.01L220.23,55.99L220.23,55.99z"/>
<path id="bathurst" fill="#010202" d="M217.35,47.5l-4.88,0.67l-2.88,2.68l5.32,0.22l-1.55,4.02l1.109,1.79l1.551-0.22l3.77-6.03
	L217.35,47.5L217.35,47.5z"/>
<path id="devon" fill="#010202" d="M225.78,45.94l-2.66,0.89l0.44,3.57l4.43,2.9l0.22,2.23l-1.33,1.34l0.67,4.47l17.07,5.58
	l4.66,1.56l4.66-4.02l-5.54-4.47l-5.101,1.34l-7.09-0.67l-2.66-2.68l-0.67-7.37l-4.43-2.23L225.78,45.94L225.78,45.94z"/>
<path id="baffin" fill="#010202" d="M239.74,69.18l-4.88-0.45l-5.761,2.23L226,75.2l0.89,11.62l9.53,0.45l9.09,4.47l6.431,7.37
	l4.88-0.22l-1.33,6.92l-4.43,7.37l-4.881,2.23l-3.55-0.67l-1.77-1.56l-2.66,3.57l1.11,3.57l3.77,0.22l4.66-2.23l3.99,10.28
	l9.979,6.48l6.87-8.71l-5.76-9.38l3.329-3.8l4.66,7.82l8.42-7.37l-1.55-3.35l-5.76,1.79l-3.99-10.95l3.771-6.25l-7.54-8.04
	l-4.21,2.9l-3.99-8.71l-8.42,1.12l-2.22-10.5l-6.87,4.69l-0.67,5.81h-3.771l0.44-5.14L239.74,69.18L239.74,69.18z"/>
<path id="bylot" fill="#010202" d="M249.72,73.2l-1.77,1.79l1.55,2.46l7.32,0.89l-4.66-4.92L249.72,73.2L249.72,73.2z"/>
<path id="ellesmere" fill="#010202" d="M242.63,47.95v2.01l-4.88,1.12l1.33,2.229l5.54,2.23l6.21,0.67l4.43,3.13l4.43-2.46
	l-3.1-3.13h3.99l2.439-2.68l5.99-0.89v-1.34l-3.33-2.23l0.44-2.46l9.31,1.56l13.75-5.36l-5.1-1.56l1.33-1.79h10.64l1.77-1.79
	l-21.51-7.6l-5.1-1.79l-5.54,4.02l-6.21-5.14l-3.33-0.22l-0.67,4.25l-4.21-3.8l-4.88,1.56l0.89,2.46l7.32,1.56l-0.44,3.57l3.99,2.46
	l9.76-2.46l0.22,3.35l-7.979,3.8l-4.88-3.8l-4.43,0.45l4.43,6.26l-2.22,1.12l-3.33-2.9l-2.44,1.56l2.221,4.24h3.77l-0.89,4.02
	l-3.101-0.45l-3.99-4.25L242.63,47.95L242.63,47.95z"/>
<path id="southhampton" fill="#010202" d="M222.87,109.44l-4.23,5.32l-0.26,5.86l3.7-2.13h4.49l3.17,2.93l2.91-2.4L222.87,109.44
	L222.87,109.44z"/>
<path id="newfoundland" fill="#010202" d="M274.38,178.64l-10.57,10.12l1.061,2.4l12.939,4.79l1.851-3.19l-1.061-5.32l-4.229,0.53
	l-2.38-2.66l3.96-3.99L274.38,178.64L274.38,178.64z"/>
<path id="canada" fill="#010202" d="M115.08,56.25l1.99,3.01l1,4.02l4.979,1.25l3.49-3.76l2.99,1.51l8.47,0.75l5.98-2.51l1,8.28
	h3.489v-3.51l3.49,0.25l8.72,10.29l5.73,3.51l-2.99,4.77l1.25,1.25l11.19,2.26l0.25,5.02l2.99,0.5l0.75-7.53l4.729-1.25l3.49,5.27
	l7.47,3.51l3.74,0.75l2.49-3.01l0.25-4.77l4.479-2.76l1.49,4.02L204,94.4l0.5,3.51l2.24-3.51l4.479-4.02l0.25-5.27l-2.489-4.02
	l0.75-3.26l5.979-3.01l2.74,2.01l0.5,17.57l4.229-3.76l2.49,1.51l-3.49,6.02l4.48,1l6.479-10.04l5.48,5.77l-2.24,10.29l-5.479,3.01
	l-5.23-2.51l-9.46,2.01l1,3.26l-2.49,4.02l-7.72,1.76l-8.72,6.78l-7.72,10.29l-1,3.26l5.229,2.01l1.99,5.02l7.22,7.28l11.46,5.02
	l-2.49,11.54l-0.25,3.26l2.99,2.01l3.99-5.27l0.5-10.04l6.229-0.25l2.99-5.77l0.5-8.78l7.97-15.56l9.961,3.51l5.229,7.28l-2.24,7.28
	l3.99,2.26l9.71-6.53l2.74,17.82l8.97,10.79l0.25,5.52l-9.96,2.51l-4.73,5.02l-9.959-2.26l-4.98-0.25l-8.72,6.78l5.229-1.25
	l6.48-1.25l1.25,1.51l-1.74,5.52l0.25,5.02l2.99,2.01l2.989-0.75l1.5-2.26h1.99l-3.24,6.02l-6.229,0.25l-2.74,4.02h-3.49l-1-3.01
	l4.98-5.02l-5.98,2.01l-0.27-8.53l-1.72-1l-5.23,2.26l-0.5,4.27h-11.96l-10.21,7.03l-13.7,4.52l-1.489-2.01l6.899-10.3l-3.92-3.771
	l-2.49-4.78l-5.069-3.87l-5.44-0.45l-9.75-6.83l-70.71-11.62l-1.17-4.79l-6.48-6.02v-5.02l1-4.52l-0.5-2.51l-2.489-2.51l-0.5-4.02
	l6.479-4.521l-3.99-21.58l-5.479-0.25l-4.98-6.53L115.08,56.25L115.08,56.25z"/>
<path id="usa" fill="#010202" d="M105.62,165.93l-1,4.02l-3.49-2.26h-1.74l-1,4.27l-12.21,27.36l3.24,23.84l3.99,2.01l0.75,6.53
	h8.22l7.97,6.02l15.69,1.51l1.74,8.03l2.49,1.76l3.489-3.51l2.74,1.25l2.49,11.54l4.229,2.76l3.49-6.53l10.71-7.78l6.97,3.26
	l5.98,0.5l0.25-3.76l12.45,0.25l2.49,2.76l0.5,6.27l-1.49,3.51l1.74,6.02h3.739l3.74-5.77l-1.49-2.76l-1.489-6.02l2.239-6.78
	l10.21-8.78l7.721-2.26l-1-7.28l10.71-11.55l10.71-1.76l-1.74-6.01l10.46-6.02v-8.03l-1-0.5l-3.74,1.25l-0.5,4.92l-12.43,0.15
	l-9.74,6.47l-15.29,5l-2.439-2.99l6.939-10.5l-3.43-3.27l-2.33-4.44l-4.83-3.88l-5.25-0.44l-9.92-6.77L105.62,165.93L105.62,165.93z
	"/>
<path id="haida_gwaii" fill="#010202" d="M90.69,136l-1.7,3.26l0.59,2.31l1.11,0.69l-0.261,0.94l-1.189,0.34l0.34,3.43l1.28,1.29
	l1.02-1.11l-1.279-3.34l0.76-2.66l1.87-2.49l-1.36-2.31L90.69,136L90.69,136z"/>
<path id="vancouver" fill="#010202" d="M96.311,155.54l-1.53,0.6l2.81,3.26l0.681,3.86l2.81,3l2.38-0.43v-3.94l-2.89-1.8
	L96.311,155.54L96.311,155.54z"/>
<path id="guatemala" fill="#010202" d="M151.74,299.109l5.93,4.34l5.98-7.43l-1.021-1.539l-2.04-0.07v-4.351l-1.529-0.93
	l-4.631,1.38l1.771,4.08L151.74,299.109L151.74,299.109z"/>
<path id="honduras" fill="#010202" d="M164.41,296.37l9.24-0.351l2.739,3.26l-1.71-0.39l-3.29,0.14l-4.3,4.041l-1.84,4.09
	l-1.21-0.641l-0.01-4.479l-2.66-1.78L164.41,296.37L164.41,296.37z"/>
<path id="el_salvador" fill="#010202" d="M158.51,303.859l4.7,2.34l-0.07-3.709l-2.409-1.471L158.51,303.859L158.51,303.859z"/>
<path id="nicaragua" fill="#010202" d="M174.601,299.699l2.189,0.44l0.07,4.49l-2.55,7.28l-6.87-0.68l-1.53-3.511l2.04-4.26
	l3.87-3.601L174.601,299.699L174.601,299.699z"/>
<path id="costa_rica" fill="#010202" d="M174.24,312.57l1.39,2.72l1.13,1.5l-1.52,4.51l-2.9-2.04l-4.739-4.34v-2.87L174.24,312.57
	L174.24,312.57z"/>
<path id="panama" fill="#010202" d="M177.45,317.199l-1.46,4.561l4.82,1.25l2.989,0.59l0.511-3.529l3.21-1.621l2.85,1.471l1.12,1.79
	l1.36-0.16l1.069-3.25l-3.56-1.47l-2.7-1.471l-2.7,1.84l-3.21,1.621l-3.28-1.32L177.45,317.199L177.45,317.199z"/>
<path id="colombia" fill="#010202" d="M210.59,307.37l-2.06-0.21l-13.62,11.229l-1.44,3.95l-1.859,0.21l0.83,8.729l-4.75,11.65
	l5.16,4.37l6.609,0.42l4.54,6.66l6.601,0.21l-0.211,4.99h2.471l2.68-9.15l-2.479-3.119l0.619-5.82l5.16-0.42l-0.62-13.521
	l-11.56-3.739l-2.68-7.281L210.59,307.37L210.59,307.37z"/>
<path id="venezuela" fill="#010202" d="M207.32,313.51l0.439,2.59l3.25,1.03l0.74-4.771l3.43-3.549l3.431,4.02l7.89,2.15l6.68-1.4
	l4.551,5.609l3.43,2.15l-3.76,5.73l1.26,4.34l-2.15,2.66l-2.229,1.869l-4.83-2.43l-1.11,1.12v3.46l3.53,1.68l-2.6,2.811l-2.601,2.81
	l-3.43-0.28l-3.45-3.789l-0.729-14.261l-11.78-4.02l-2.141-6.271L207.32,313.51L207.32,313.51z"/>
<path id="guyana" fill="#010202" d="M241.91,321.72l7.22,6.54l-2.87,3.32l-0.229,1.97l3.77,3.89l-0.09,3.74l-6.56,2.5l-3.931-5.31
	l0.841-6.38l-1.681-4.75L241.91,321.72L241.91,321.72z"/>
<path id="suriname" fill="#010202" d="M249.99,328.73l2.04,1.869l3.159-1.96l2.881,0.091l-0.37,1.119l-1.21,2.521l-0.19,6.27
	l-5.75,2.341l0.28-4.021l-3.71-3.46l0.19-1.78L249.99,328.73L249.99,328.73z"/>
<path id="guyane" fill="#010202" d="M258.99,329.39l5.85,3.65l-3.06,6.079l-1.11,1.4l-3.25-1.869l0.09-6.551L258.99,329.39
	L258.99,329.39z"/>
<path id="ecuador" fill="#010202" d="M187.061,343.439l-4.73,2.94l-0.34,4.36l-0.95,1.43l2.98,2.859l-1.29,1.41l0.3,3.601l5.33,1.27
	l8.069-9.55l-0.02-3.33l-3.87-0.25L187.061,343.439L187.061,343.439z"/>
<path id="peru" fill="#010202" d="M181.89,357.109l-1.939,1.961l0.13,3.129l16.94,30.881l17.59,11.34l2.72-4.561l0.65-10.029
	l-1.42-6.25l-4.79-8.08l-2.851,0.91l-1.29,1.43l-5.689-6.52l1.42-7.69l6.6-4.3l-0.52-4.04l-6.721-0.261l-3.489-5.859l-1.94-0.65
	l0.13,3.521l-8.66,10.29l-6.47-1.561L181.89,357.109L181.89,357.109z"/>
<path id="bolivia" fill="#010202" d="M215.57,380.38l8.229-3.59l2.721,0.26l1.81,7.56l12.54,4.17l2.07,6.391l5.17,0.65l2.2,5.47
	l-1.551,4.95l-8.409,0.649l-3.101,7.95l-6.6-0.13l-2.07-0.39l-3.81,3.699l-1.881-0.18l-6.47-14.99l1.79-2.68l0.63-10.6l-1.6-6.311
	L215.57,380.38L215.57,380.38z"/>
<path id="paraguay" fill="#010202" d="M248.62,407.1l2.2,2.4l-0.26,5.08l6.339-0.391l4.79,6.131l-0.39,5.47l-3.1,4.689l-6.34,0.261
	l-0.261-2.61l1.811-4.3l-6.21-3.91h-5.17l-3.88-4.17l2.819-8.061L248.62,407.1L248.62,407.1z"/>
<path id="uruguay" fill="#010202" d="M257.22,439.52l-2.05,2.19l0.85,11.78l6.44,1.869l8.189-8.21L257.22,439.52L257.22,439.52z"/>
<path id="argentina" fill="#010202" d="M262.33,425.79l1.939,1.819l-7.37,10.95l-2.589,2.87l0.899,12.51l5.689,6.91l-4.779,8.34
	l-3.62,1.561h-4.14l1.16,6.51l-6.471,2.22l1.55,5.471l-3.88,12.38l4.79,3.91l-2.59,6.38l-4.399,6.91l2.329,4.819l-5.689,0.91
	l-4.66-5.729l-0.78-17.851l-7.239-30.32l2.189-10.6l-4.66-13.55l3.101-17.59l2.85-3.39l-0.7-2.57l3.66-3.34l8.16,0.56l4.56,4.87
	l5.271,0.09l5.4,3.3l-1.591,3.72l0.38,3.761l7.65-0.36L262.33,425.79L262.33,425.79z"/>
<path id="tierra_del_fuego_chile" fill="#010202" d="M241.9,521.689l-4.271,9.381l7.37,0.779l0.13-6.25L241.9,521.689L241.9,521.689
	z"/>
<path id="tierra_del_fuego_argentina" fill="#010202" d="M245.78,526.38l0.26,5.729l4.4-0.39l3.75-2.479l-6.34-1.301L245.78,526.38
	L245.78,526.38z"/>
<path id="chile" fill="#010202" d="M240.45,520.22l-3.21,3.55l-0.391,4.17l-6.21-3.52l-6.6-9.51l-1.94-3.391l2.721-3.52l-0.26-4.431
	l-3.101-1.3L219,500.45l0.521-2.48l3.229-0.91l0.65-14.33l-5.04-2.87l-3.29-74.59l0.85-1.479l6.44,14.85l2.06,0.04l0.67,2.37
	l-2.74,3.319L219.2,442.24L223.68,456l-2.069,10.42l7.3,30.64l0.77,17.92l5.23,6.051L240.45,520.22L240.45,520.22z"/>
<path id="chiloe" fill="#010202" d="M219.14,482.729l-1.29,1.95l0.65,3.391l1.29,0.13l0.65-4.3L219.14,482.729L219.14,482.729z"/>
<path id="brazil" fill="#010202" d="M271.1,446.439l6.25-12.02l0.23-10.1l11.66-7.521h6.529l5.13-8.69l0.931-16.68l-2.101-4.46
	l12.36-11.28l0.47-12.449l-16.79-8.221l-20.279-6.34l-9.561-0.939l2.57-5.4l-0.7-8.22l-2.09-0.69l-3.09,6.141L261,341.6l-4.16-1.84
	l-13.99,4.93l-4.659-5.869l0.75-6.131l-4.4,4.48l-4.86-2.62l-0.489,0.69l0.01,2.13l4.189,2.25l-6.289,6.63l-3.971-0.04l-4.02-4.09
	l-4.55,0.14L214,347.12l2.61,3.17l-3.08,9.87l-3.601,0.279l-5.729,3.621l-1.4,7.109l4.971,5.32l0.909-1.03l3.49-0.94l2.98,5.021
	l8.529-3.66l3.311,0.19l2.28,8.069l12.17,3.86l2.1,6.439l5.18,0.621l2.471,6.149l-1.67,5.47l2.18,2.86l-0.32,4.26l5.84-0.55
	l5.351,6.76l-0.421,4.75l3.171,2.68l-7.601,11.511L271.1,446.439L271.1,446.439z"/>
<path id="belize" fill="#010202" d="M161.42,289.99l-0.05,3.649h0.84l2.86-5.34h-1.94L161.42,289.99L161.42,289.99z"/>
<path id="russia" fill="#010202" d="M774.83,80.52l1.76,6.08l3.521,1.01l3.52-5.57l-2.01-3.8l0.75-3.29h5.279l-1.26,2.53l0.5,9.12
	l-7.54,18.74l0.75,4.05l-0.25,6.84l14.07,20.51l2.76,0.76l0.25-16.71l2.761-2.53l-3.021-6.58l2.51-2.79l-5.53-7.34l-3.02,0.25
	l-1-12.15l7.79-2.03l0.5-3.55l4.02-1.01l2.261,2.03l2.76-11.14l4.77-8.1l3.771-2.03l3.27,0.25v-3.8l-5.279-1.01l-7.29-6.08
	l3.52-4.05l-3.02-6.84l2.51-2.53l3.02,4.05l7.54,2.79l8.29,0.76l1.011-3.54l-4.271-4.3l4.771-6.58l-10.811-3.8L816,34.71
	l-3.521-4.56l-19.85-6.84l-18.85,3.29l-2.761,1.52v1.52l4.021,2.03l-0.5,4.81l-7.29-3.04l-16.08,6.33l-2.76-5.82H737.35l-5.029,5.32
	l-17.841-4.05l-16.33,3.29l-2.01,5.06l2.51,0.76l-0.25,3.8L682.57,49.9l1.01,5.06L669,52.43l3.52-6.58l-14.83-0.76l1.261,6.84
	l-4.771,2.28l-4.02-3.8l-16.33,2.79l-6.28,5.82l-0.25,3.54l-4.02,0.25l-0.5-4.05L635.6,47.62v-7.6l-8.29-2.28l-10.81,3.54
	l-4.521-4.56h-2.01l-2.51,5.06l2.01,2.28l-14.33,7.85l-12.31,9.37l-7.54,10.38v4.3l8.04,3.29l-4.021,3.04l-8.54-3.04l-3.52,3.04
	l-5.28-6.08l-1.01,2.28l5.779,18.23l1.511,0.51l4.02-2.03l2.011,1.52v3.29l-3.771-1.52l-2.26,1.77l1.51,3.29l-1.26,8.61l-7.79,0.76
	l-0.5-2.79l4.52-2.79l1.011-7.6l-5.03-6.58l-1.76-11.39l-8.04-1.27l-0.75,4.05l1.51,2.03l-3.271,2.79l1.261,7.6l4.77,2.03l1.01,5.57
	l-4.779-3.04l-12.311-2.28l-1.51,4.05l-9.8,3.54l-1.51-2.53l-12.82,7.09l-0.25,4.81l-5.03,0.76l1.51-3.54v-3.54l-5.029-1.77
	l-3.271,1.27l2.76,5.32l2.011,3.54v2.79l-3.771-0.76l-0.75-0.76l-3.77,4.05l2.01,3.54l-8.54-0.25l2.76,3.55l-0.75,1.52h-4.52
	l-3.271-2.28l-0.75-6.33l-5.28-2.03v-2.53l11.061,2.28l6.03,0.51l2.51-3.8l-2.26-4.05l-16.08-6.33l-5.551,1.38l-1.899,1.63
	l0.59,3.75l2.36,0.41l-0.551,5.9l7.28,17.1l-5.26,8.34l-0.36,1.88l2.67,1.88l-2.409,1.59l-1.601,0.03l0.3,7.35l2.21,3.13l0.03,3.04
	l2.83,0.26l4.33,1.65l4.58,6.3l0.05,1.66l-1.49,2.55l3.42-0.19l3.33,0.96l4.5,6.37l11.08,1.01L510,192.93l-3.82,3.27l0.79,1.28
	l-3.77,4.05l-1,3.8l2.26,3.29l7.29,2.53l3.02-1.77l19.351,7.34l0.75-2.03l-4.021-3.8v-4.81l-2.51-0.76l0.5-4.05l4.02-4.81l-7.21-5.4
	l0.5-7.51l7.71-5.07l9.051,0.51l1.51,2.79l9.3,0.51l6.79-3.8l-3.521-3.8l0.75-7.09l17.591-8.61l13.529,6.1l4.521-4.05l13.32,12.66
	l10.05-1.01l3.52,3.54l9.55,1.01l6.28-8.61l8.04,3.55l4.271,0.76l4.27-3.8l-3.77-2.53l3.27-5.06l9.3,3.04l2.011,4.05l4.02,0.25
	l2.51-1.77l6.79-0.25l0.75,1.77l7.79,0.51l5.28-5.57l10.81,1.27l3.271-1.27l1-6.08l-3.271-7.34l3.271-2.79h10.3l9.8,11.65
	l12.561,7.09h3.77l0.5-3.04l4.521-2.79l0.5,16.46l-4.021,0.25v4.05l2.26,2.79l-0.42,3.62l1.67,0.69l1.011-2.53l1.51,0.51l1,1.01
	l4.521-1.01l4.52-13.17l0.5-16.46l-5.78-13.17l-7.29-8.86l-3.52,0.51v2.79l-8.54-3.29l3.27-7.09l2.761-18.74l11.56-3.54l5.53-3.54
	h6.03l-1.511,2.03l1.51,2.53l5.28-5.57l3.021,0.25l-0.5-3.29l-4.78-1.01l3.27-11.9L774.83,80.52L774.83,80.52z"/>
<path id="china" fill="#010202" d="M627.26,177.66l-3.46,8.7l-4.77-0.25L614,197.12l4.27,5.439l-8.8,12.15l-4.52-0.76l-3.021,3.8
	l0.75,2.28l3.521,0.25l1.76,4.05l3.52,0.76l10.811,13.93v7.09l5.28,3.29l5.779-1.01l7.29,4.3l8.8,2.53l4.271-0.51l4.78-0.51
	l10.05-6.58l3.27,0.51l1.25,2.97l2.771,0.83l3.77,5.57l-2.51,5.57l1.51,3.8l4.271,1.52l0.75,4.56l5.03,0.51l0.75-2.28l7.29-3.8
	l4.52,0.25l5.28,5.82l3.52-1.52l2.261,0.25l1.01,2.79l1.76,0.25l2.51-3.54l10.051-3.8l9.05-10.89l3.02-10.38l-0.25-6.84l-3.77-0.76
	l2.26-2.53l-0.5-4.05l-9.55-9.62V218l2.76-3.54l2.76-1.27l0.25-2.79h-7.04l-1.26,3.8l-3.27-0.76l-4.021-4.3l2.51-6.58l3.521-3.8
	l3.27,0.25l-0.5,5.82l1.761,1.52l4.27-4.3l1.51-0.25l-0.5-3.29l4.021-4.81l3.02,0.25l1.761-5.57l2.06-1.09l0.21-3.47l-2-2.1
	l-0.17-5.48l3.85-0.25l-0.25-14.13l-2.699,1.62l-1.011,3.62l-4.51-0.01l-13.07-7.35l-9.439-11.38l-9.58-0.1l-2.44,2.12l3.101,7.1
	l-1.08,6.66l-3.86,1.6l-2.17-0.17l-0.16,6.59l2.26,0.51l4.021-1.77l5.28,2.53v2.53l-3.771,0.25l-3.02,6.58l-2.761,0.25l-9.8,12.91
	l-10.3,4.56l-7.04,0.51l-4.77-3.29l-6.79,3.55l-7.29-2.28l-1.76-4.81l-12.311-0.76l-6.53-10.63h-2.76l-2.22-4.93L627.26,177.66z"/>
<path id="mongolia" fill="#010202" d="M630.66,177.76l5.819-7.72l6.99,3.23l4.75,1.27l5.82-5.34l-3.95-2.91l2.6-3.67l7.761,2.74
	l2.689,4.41l4.86,0.13l2.54-1.89l5.229-0.21l1.141,1.94l8.689,0.44l5.5-5.61l7.61,0.8l-0.44,7.64l3.33,0.76l4.09-1.86l4.33,2.14
	l-0.1,1.08l-3.14,0.09l-3.271,6.86l-2.54,0.25l-9.88,12.91L681,199.69l-6.311,0.49l-5.239-3.38l-6.7,3.58l-6.601-2.05l-1.869-4.79
	l-12.5-0.88l-6.4-10.85l-3.11-0.2L630.66,177.76L630.66,177.76z"/>
<path id="north_korea" fill="#010202" d="M735.14,201.86l1.84,0.77l0.561,6.44l3.65,0.21l3.439-4.03l-1.189-1.06l0.14-4.32
	l3.16-3.82l-1.61-2.9l1.05-1.2l0.58-3l-1.83-0.83l-1.56,0.79l-1.93,5.86l-3.12-0.27l-3.61,4.26L735.14,201.86L735.14,201.86z"/>
<path id="south_korea" fill="#010202" d="M745.2,205.79l6.18,5.04l1.05,4.88l-0.21,2.62l-3.02,3.4l-2.601,0.14l-2.95-6.37
	l-1.119-3.04l1.189-0.92l-0.28-1.27l-1.47-0.66L745.2,205.79L745.2,205.79z"/>
<path id="kazakhstan" fill="#010202" d="M533.55,196.21l4.1-1.75l4.58-0.16l0.32,7h-2.68l-2.05,3.34l2.68,4.45l3.95,2.23l0.359,2.55
	l1.45-0.48l1.34-1.59l2.21,0.48l1.11,2.23h2.84v-2.86l-1.74-5.09l-0.79-4.13l5.051-2.23l6.79,1.11l4.26,4.29l9.63-0.95l5.37,7.63
	l6.31,0.32l1.74-2.86l2.21-0.48l0.32-3.18l3.31-0.16l1.74,2.07l1.74-4.13l14.99,2.07l2.52-3.34l-4.26-5.25l5.68-12.4l4.58,0.32
	l3.16-7.63l-6.311-0.64l-3.63-3.5l-10,1.16l-12.88-12.45l-4.54,4.03l-13.77-6.25l-16.891,8.27l-0.47,5.88l3.95,4.61l-7.7,4.35
	l-9.99-0.22l-2.09-3.07l-7.83-0.43l-7.42,4.77l-0.16,6.521L533.55,196.21L533.55,196.21z"/>
<path id="turkmenistan" fill="#010202" d="M550.71,215.18l-0.62,2.63h-4.15v3.561l4.46,2.939l-1.38,4.03v1.86l1.851,0.31l2.46-3.25
	l5.54-1.24l11.84,4.49l0.15,3.25l6.609,0.62l7.38-7.75l-0.92-2.48l-4.92-1.08l-13.84-8.99l-0.62-3.25h-5.229l-2.311,4.34h-2.31
	L550.71,215.18L550.71,215.18z"/>
<path id="uzbekistan" fill="#010202" d="M585.78,226.65l3.08,0.16v-5.27l-2.921-1.7l4.921-6.2h2l2,2.33l5.229-2.01l-7.229-2.48
	l-0.28-1.5l-1.72,0.42l-1.69,2.94l-7.29-0.24l-5.35-7.57l-9.4,0.93l-4.48-4.44l-6.199-1.05l-4.5,1.83l2.609,8.68l0.03,2.92l1.9,0.04
	l2.33-4.44l6.199,0.08l0.921,3.41l13.289,8.82l5.141,1.18L585.78,226.65L585.78,226.65z"/>
<path id="tajikistan" fill="#010202" d="M587.05,219.43l4.11-5.1h1.55l0.54,1.14l-1.9,1.38v1.14l1.25,0.9l6.01,0.36l1.96-0.84
	l0.891,0.18l0.6,1.92l3.57,0.36l1.79,3.78l-0.54,1.14l-0.71,0.06l-0.71-1.44l-1.55-0.12l-2.681,0.36l-0.18,2.52l-2.68-0.18
	l0.12-3.18l-1.96-1.92l-2.98,2.46l0.06,1.62l-2.619,0.9h-1.551l0.12-5.58L587.05,219.43L587.05,219.43z"/>
<path id="kirgizstan" fill="#010202" d="M593.67,206.8l-0.31,2.53l0.25,1.56l8.699,2.92l-7.64,3.08l-0.87-0.72l-1.65,1.06l0.08,0.58
	l0.881,0.4l5.359,0.14l2.72-0.82l3.49-4.4l4.37,0.76l5.27-7.3l-14.1-1.92l-1.95,4.73l-2.46-2.64L593.67,206.8L593.67,206.8z"/>
<path id="afghanistan" fill="#010202" d="M570.979,234.64l1.591,12.46l3.96,0.87l0.369,2.24l-2.84,2.37l5.29,4.27l10.28-3.7
	l0.82-4.38l6.47-4.04l2.479-9.36l1.851-1.99l-1.92-3.34l6.26-3.87l-0.8-1.12l-2.891,0.18l-0.26,2.66l-3.88-0.04l-0.07-3.55
	l-1.25-1.49l-2.1,1.91l0.06,1.75l-3.17,1.2l-5.85-0.37l-7.6,7.96L570.979,234.64L570.979,234.64z"/>
<path id="pakistan" fill="#010202" d="M579.99,257.43l2.6,3.86l-0.25,1.99l-3.46,1.37l-0.25,3.24h3.96l1.36-1.12h7.54l6.8,5.98
	l0.87-2.87h5.069l0.12-3.61l-5.189-4.98l1.109-2.74l5.32-0.37l7.17-14.95l-3.96-3.11l-1.48-5.23l9.641-0.87l-5.69-8.1l-3.03-0.82
	L607,226.6l-0.931,0.07l-5.689,3.61l1.859,3.12l-2.1,2.24l-2.6,9.59l-6.431,4.11l-0.869,4.49L579.99,257.43L579.99,257.43z"/>
<path id="india" fill="#010202" d="M627.84,320.6l4.58-2.24l2.72-9.84l-0.12-12.08l15.58-16.819v-3.99l3.21-1.25l-0.12-4.61
	l-3.46-6.73l1.98-3.61l4.33,3.99l5.56,0.25v2.24l-1.729,1.87l0.37,1l2.97,0.12l0.62,3.36h0.87l2.229-3.99l1.11-10.46l3.71-2.62
	l0.12-3.61l-1.48-2.87l-2.35-0.12l-9.2,6.08l0.58,3.91l-6.46-0.02l-2.28-2.79l-1.24,0.16l0.42,3.88l-13.97-1l-8.66-3.86l-0.46-4.75
	l-5.77-3.58l-0.07-7.37l-3.96-4.53l-9.1,0.87l0.989,3.96l4.46,3.61l-7.71,15.78l-5.159,0.39l-0.851,1.9l5.08,4.7l-0.25,4.75
	l-5.189-0.08l-0.561,2.36l4.311-0.19l0.12,1.87l-3.091,1.62l1.98,3.74l3.83,1.25l2.35-1.74l1.11-3.109l1.359-0.621l1.61,1.621
	l-0.49,3.989l-1.109,1.87l0.25,3.24L627.84,320.6L627.84,320.6z"/>
<path id="nepal" fill="#010202" d="M628.05,250.15l0.46,4.27l8.08,3.66l12.95,0.96l-0.49-3.13l-8.65-2.38l-7.34-4.37L628.05,250.15
	L628.05,250.15z"/>
<path id="bhutan" fill="#010202" d="M652.26,255.67l1.55,2.12l5.24,0.04l-0.53-2.9L652.26,255.67L652.26,255.67z"/>
<path id="bangladesh" fill="#010202" d="M652.43,260.7l-1.31,2.37l3.399,6.46l0.101,5.04l0.62,1.35l3.989,0.07l2.261-2.17l1.64,0.99
	l0.33,3.07l1.31-0.82l0.08-3.92l-1.1-0.13l-0.69-3.33l-2.779-0.1l-0.69-1.85l1.7-2.27l0.03-1.12h-4.94L652.43,260.7L652.43,260.7z"
	/>
<path id="burma" fill="#010202" d="M686.3,311.24l-2.77-4.44l2.01-2.819l-1.9-3.49l-1.79-0.34l-0.34-5.86l-2.68-5.19l-0.78,1.24
	l-1.79,3.04l-2.24,0.34l-1.12-1.47l-0.56-3.95l-1.68-3.16l-6.841-6.45l1.681-1.109l0.31-4.67l2.5-4.2l1.08-10.45l3.62-2.47
	l0.12-3.81l2.17,0.72l3.42,4.95l-2.54,5.44l1.71,4.27l4.23,1.66l0.77,4.65l5.68,0.88L687,277.26l-7.16,2.82l-0.78,4.619l5.26,6.761
	l0.221,3.61l-1.23,1.239l0.11,1.13l3.92,5.75l0.11,5.971L686.3,311.24L686.3,311.24z"/>
<path id="thailand" fill="#010202" d="M686.89,278.06l3.24,4.171v5.069l1.12,0.56l5.149-2.479l1.011,0.34l6.149,7.101l-0.22,4.85
	l-2.01-0.34l-1.79-1.131l-1.34,0.11l-2.351,3.94l0.45,2.14l1.9,1.011l-0.11,2.369l-1.34,0.68l-4.59-3.159v-2.82l-1.9-0.11
	l-0.78,1.24l-0.399,12.62l2.97,5.42l5.26,5.07l-0.22,1.47l-2.8-0.109l-2.57-3.83h-2.689l-3.36-2.711l-1.01-2.819l1.45-2.37
	l0.5-2.141l1.58-2.799l-0.07-6.44l-3.86-5.58l-0.16-0.68l1.25-1.261l-0.29-4.43l-5.14-6.51l0.6-3.75L686.89,278.06L686.89,278.06z"
	/>
<path id="malaysia" fill="#010202" d="M689.57,323.04l2.01,4.51l0.45,5.86l2.689,4.17l6.49,3.939l2.46,0.23l-0.45-4.061l-2.13-5.18
	l-3.12-6.63l-0.26,1.16l-3.76-0.17l-2.7-3.88L689.57,323.04L689.57,323.04z"/>
<path id="cambodia" fill="#010202" d="M697.34,307.06l4.09,4.37l7.61-5.64l0.67-8.9l-3.93,2.71l-2.04-1.14l-2.771-0.37l-1.55-1.09
	l-0.75,0.04l-2.03,3.329l0.33,1.541l2.061,1.149l-0.25,3.13L697.34,307.06L697.34,307.06z"/>
<path id="laos" fill="#010202" d="M692.33,270.52l-2.42,1.23l-2.011,5.859l3.36,4.28l-0.56,4.73l0.56,0.229l5.59-2.71l7.5,8.38
	l-0.18,5.28l1.63,0.88l4.03-3.27l-0.33-2.59l-11.63-11.051l0.109-1.689l1.45-1.01l-1.01-2.82l-4.81-0.79L692.33,270.52
	L692.33,270.52z"/>
<path id="vietnam" fill="#010202" d="M701.92,312.04l1.19,1.87l0.22,2.14l3.13,0.34l3.8-5.069l3.58-1.011l1.9-5.18l-0.891-8.34
	l-3.689-5.07l-3.891-3.11l-4.95-8.5l3.551-5.939l-5.08-5.83l-4.07-0.18l-3.66,1.97l1.09,4.71l4.881,0.86l1.31,3.63l-1.72,1.119
	l0.109,0.9l11.45,11.2l0.45,3.29l-0.69,10.4L701.92,312.04L701.92,312.04z"/>
<path id="georgia" fill="#010202" d="M512.32,211.75l3.27,4.27l4.08,1.88l2.51-0.01l4.311-1.17l1.08-1.69l-12.75-4.77L512.32,211.75
	L512.32,211.75z"/>
<path id="armenia" fill="#010202" d="M526.58,217.48l4.8,6.26l-1.41,1.65l-3.4-0.59l-4.22-3.78l0.23-2.48L526.58,217.48
	L526.58,217.48z"/>
<path id="azerbaijan" fill="#010202" d="M528.27,215.31l-1.01,1.72l4.71,6.18l1.641-0.53l2.699,2.83l1.17-4.96l2.931,0.47
	l-0.12-1.42l-4.82-4.22l-0.92,2.48L528.27,215.31L528.27,215.31z"/>
<path id="iran" fill="#010202" d="M526.51,225.54l-1.22,1.27l0.12,2.01l1.52,2.13l5.391,5.9l-0.82,2.36h-0.94l-0.47,2.36l3.05,3.9
	l2.811,0.24l5.63,7.79l3.16,0.24l2.46,1.77l0.12,3.54l9.729,5.67h3.63l2.23-1.89l2.81-0.12l1.641,3.78l10.51,1.46l0.31-3.86
	l3.48-1.26l0.16-1.38l-2.771-3.78l-6.17-4.96l3.24-2.95l-0.23-1.3l-4.06-0.63l-1.72-13.7l-0.2-3.15l-11.011-4.21l-4.88,1.1
	l-2.729,3.35l-2.42-0.16l-0.7,0.59l-5.39-0.35l-6.801-4.96l-2.529-2.77l-1.16,0.28l-2.09,2.39L526.51,225.54L526.51,225.54z"/>
<path id="turkey" fill="#010202" d="M515.56,216.78l-2.229,2.36l-8.2-0.24l-4.92-2.95l-4.8-0.12l-5.511,3.9l-5.159,0.24l-0.471,2.95
	h-5.859l-2.34,2.13v1.18l1.409,1.18v1.3l-0.59,1.54l0.59,1.3l1.881-0.94l1.88,2.01l-0.471,1.42l-0.699,0.95l1.05,1.18l5.16,1.06
	l3.63-1.54v-2.24l1.76,0.35l4.22,2.48l4.57-0.71l1.99-1.89l1.29,0.47v2.13h1.76l1.52-2.95l13.36-1.42l5.83-0.71l-1.54-2.02
	l-0.03-2.73l1.17-1.4l-4.26-3.42l0.23-2.95h-2.341L515.56,216.78L515.56,216.78z"/>
<path id="yemen" fill="#010202" d="M528.85,296.82l1.44,4.279v4.18l3.46,3.141l24.38-9.93l0.23-2.73l-3.91-7.02l-9.811,3.13
	l-5.63,5.54l-6.53-3.86L528.85,296.82L528.85,296.82z"/>
<path id="oman" fill="#010202" d="M555.24,288.43l7.39-4.26l1.31-6.25l-1.619-0.93l0.67-6.7l1.409-0.82l1.511,2.37l8.989,4.7v2.61
	l-10.89,16.029l-5.01,0.17L555.24,288.43L555.24,288.43z"/>
<path id="emirates" fill="#010202" d="M550.87,272.53l0.87,3.48l9.859,0.87l0.69-7.14l1.899-1.04l0.521-2.61l-3.11,0.87l-3.46,5.23
	L550.87,272.53L550.87,272.53z"/>
<path id="qatar" fill="#010202" d="M549.49,266.61l-0.521,4.01l1.54,1.17l1.4-0.13l0.52-5.05l-1.21-0.87L549.49,266.61
	L549.49,266.61z"/>
<path id="kuwait" fill="#010202" d="M540.149,254.76l-2.25-1.22l-1.56,1.57l0.17,3.14l3.63,1.39L540.149,254.76L540.149,254.76z"/>
<path id="saudi" fill="#010202" d="M540.86,260.83l7.01,9.77l2.26,1.8l1.01,4.379l10.79,0.851l1.22,0.64l-1.21,5.4l-7.09,4.18
	l-10.37,3.141l-5.529,5.399l-6.57-3.829l-3.98,3.479l-5.539-9.05l-3.801-1.74l-1.38-2.09v-4.53l-13.83-16.72l-0.52-2.96h3.979
	l4.84-4.18l0.17-2.09l-1.38-1.39l2.771-2.26l5.88,0.35l10.03,8.36l5.92-0.27l0.38,1.46L540.86,260.83L540.86,260.83z"/>
<path id="syria" fill="#010202" d="M503.53,236.72l-0.351,2.54l2.82,1.18l-0.12,7.04l2.82-0.06l2.819-2.13l1.061-0.18l6.399-5.09
	l1.29-7.39l-12.79,1.3l-1.35,2.96L503.53,236.72L503.53,236.72z"/>
<path id="iraq" fill="#010202" d="M521.17,232.62l-1.56,7.71l-6.461,5.38l0.41,2.54l6.311,0.43l10.05,8.18l5.62-0.16l0.149-1.89
	l2.061-2.21l2.88,1.63l0.38-0.36l-5.57-7.41l-2.64-0.16l-3.51-4.51l0.7-3.32l1.069-0.14l0.37-1.47l-4.78-5.03L521.17,232.62
	L521.17,232.62z"/>
<path id="jordan" fill="#010202" d="M505.76,248.37l-2.46,8.58l-0.11,1.31h3.87l4.33-3.82l0.11-1.45l-1.771-1.81l3.17-2.63
	l-0.46-2.44l-0.87,0.2l-2.64,1.89L505.76,248.37L505.76,248.37z"/>
<path id="lebanon" fill="#010202" d="M503.06,240.03l0.061,1.95l-0.82,2.96l2.82,0.24l0.18-4.2L503.06,240.03L503.06,240.03z"/>
<path id="israel" fill="#010202" d="M502.18,245.65l-1.58,5.03l2.05,6.03L505,247.9v-1.89L502.18,245.65L502.18,245.65z"/>
<path id="cyprus" fill="#010202" d="M500.07,237.43l1.229,0.89l-3.81,3.61l-1.82-0.06l-1.35-0.95l0.18-1.77l2.76-0.18L500.07,237.43
	L500.07,237.43z"/>
<path id="norway" fill="#010202" d="M472.32,109.73l2.02-1.48l-0.18-1.66l-1.28-0.74l0.18-2.03h1.101v-1.11l-4.771-1.29l-7.149,0.74
	l-0.73,3.14l-1.649-0.55l-1.101-1.85l-3.49,0.18l-0.37,3.51l-1.649,0.74l-0.92-1.85l-7.34,5.91l1.47,1.66l-2.75,1.29l-6.24,12.38
	l-2.2,1.48l0.181,1.11l2.199,1.11l-0.55,2.4l-3.67-0.19l-1.1-1.29l-2.38,2.77l-1.471,1.11l-0.369,2.59l-1.28,0.74l-3.3,0.74
	l-1.65,5.18l1.1,8.5l1.28,3.88l1.47,1.48l3.301-0.18l4.77-4.62l1.83-3.14l0.55,4.62l3.12-5.54l0.18-15.53l2.54-1.6l0.761-8.57
	l7.699-11.09l3.67-1.29l1.65-2.03l5.5,1.29l2.75,1.66l0.92-4.62l4.59-2.77L472.32,109.73L472.32,109.73z"/>
<path id="britain" fill="#010202" d="M402.979,156.67l-1.83,2.77l0.73,1.11h4.22v1.85l-1.1,1.48l0.729,3.88l2.381,4.62l1.829,4.25
	l2.931,1.11l1.279,2.22l-0.18,2.03l-1.83,1.11l-0.18,0.92l1.28,0.74l-1.101,1.48l-2.569,1.11l-4.95-0.55l-7.71,3.51l-2.57-1.29
	l7.34-4.25l-0.92-0.55l-3.85-0.37l2.38-3.51l0.37-2.96l3.12-0.37l-0.551-5.73l-3.67-0.18l-1.1-1.29l0.18-4.25l-2.2,0.18l2.2-7.39
	l4.04-2.96L402.979,156.67L402.979,156.67z"/>
<path id="ulster" fill="#010202" d="M395.28,169.06l-3.301,0.37l-0.18,2.96l2.2,1.48l2.38-0.55l0.92-1.66L395.28,169.06
	L395.28,169.06z"/>
<path id="ireland" fill="#010202" d="M396.37,174.14l-0.91,6l-8.07,2.96h-2.569l-1.83-1.29v-1.11l4.04-2.59l-1.101-2.22l0.181-3.14
	l3.489,0.18l1.601-3.76l-0.21,3.34l2.71,2.15L396.37,174.14L396.37,174.14z"/>
<path id="sweden" fill="#010202" d="M454.58,112.17l1.96,1.81h3.67l2.02,3.88l0.551,6.65l-4.95,3.51v3.51l-3.49,4.81l-2.02,0.18
	l-2.75,4.62l0.18,4.44l4.77,3.51l-0.37,2.03l-1.829,2.77l-2.75,2.4l0.18,7.95l-4.22,1.48l-1.471,3.14h-2.02l-1.101-5.54l-4.59-7.04
	l3.771-6.31l0.26-15.59l2.6-1.43l0.631-8.92l7.409-10.61L454.58,112.17L454.58,112.17z"/>
<path id="finland" fill="#010202" d="M463.649,124.53l2.07,0.91l1.28,2.4l-1.28,1.66l-6.42,7.02l-1.1,3.7l1.47,5.36l4.95,3.7
	l6.6-3.14l5.32-0.74l4.95-7.95l-3.67-8.69l-3.49-8.32l0.55-5.36l-2.2-0.37l-0.569-3.91l-2.961-4.83l-3.279,2.27l-1.29,5.27
	l-3.48-2.09l-4.84-1.18l-1.08,1.26l1.86,1.68l3.39-0.06l2.73,4.41L463.649,124.53L463.649,124.53z"/>
<path id="estonia_1_" fill="#010202" d="M474.93,158.96l-6.85-1.11l0.149,3.83l6.351,3.88l2.6-0.76l-0.149-2.92L474.93,158.96
	L474.93,158.96z"/>
<path id="hiumaa" fill="#010202" d="M463.62,155.23l-1.55-0.05l-0.9,0.91l0.65,0.96l1.55,0.1l0.8-1.16L463.62,155.23L463.62,155.23z
	"/>
<path id="saaremaa" fill="#010202" d="M463.47,159.31l-1.5-0.15l-2.7,3.23v1.51l0.9,0.35l1.75,0.05l2.899-2.37l0.4-0.81
	L463.47,159.31L463.47,159.31z"/>
<path id="lithuania" fill="#010202" d="M467.67,162.29l-2.15-0.05l-2.949,2.82h-2.5l0.149,3.53l-1.5,2.77l5.4,0.05l1.55-0.2
	l1.55,1.87l3.55-0.15l3.4-4.33l-0.2-2.57L467.67,162.29L467.67,162.29z"/>
<path id="belarus" fill="#010202" d="M467.52,173.88l1.5,2.47l-0.6,1.97l0.1,1.56l0.551,1.87l3.1-1.76l3.85,0.1l2.7,1.11h6.85
	l2-4.79l1.2-1.81v-1.21l-4.3-6.05l-3.8-1.51l-3.1-0.35l-2.7,0.86l0.1,2.72l-3.75,4.74L467.52,173.88L467.52,173.88z"/>
<path id="poland" fill="#010202" d="M468.32,182.35l0.85,1.56l0.2,1.66l-0.7,1.61l-1.6,3.08l-1.351,0.61l-1.75-0.76l-1.05,0.05
	l-2.55,0.96l-2.9-0.86l-4.7-3.33l-4.6-2.47l-1.85-2.82l-0.351-6.65l3.601-3.13l4.699-1.56l1.75-0.2l-0.699,1.41l0.449,0.55
	l7.91,0.15l1.7-0.05l2.8,4.29l-0.7,1.76l0.301,2.07L468.32,182.35L468.32,182.35z"/>
<path id="spain" fill="#010202" d="M405.22,212.59h-12.74l-2.569-1.16l-1.24,0.09l-1.5,3.12l0.53,3.21l4.87,0.45l0.619,2.05
	l-2.119,11.95l0.09,2.14l3.45,1.87l3.979,0.271l7.96-1.96l3.89-4.9l0.091-4.99l6.899-6.24l0.351-2.76l-6.28-0.09L405.22,212.59
	L405.22,212.59z"/>
<path id="portugal" fill="#010202" d="M387.79,218.83l-0.62,8.65l-1.771,1.6l0.181,0.979l1.24,2.05l-0.801,2.5l1.33,0.45l3.101-0.36
	l-0.181-2.5l2.03-11.59l-0.439-1.6L387.79,218.83L387.79,218.83z"/>
<path id="majorca" fill="#010202" d="M417.96,224.8l-1.59,0.54l0.35,1.43h2.3l0.971-1.07L417.96,224.8L417.96,224.8z"/>
<path id="sardinia" fill="#010202" d="M434.42,220.97l-2.65,1.34l0.351,5.17l2.12,0.36l1.59-1.52v-4.9L434.42,220.97L434.42,220.97z
	"/>
<path id="corsica" fill="#010202" d="M434.689,214.55l-1.949,1.96l-0.181,1.78l1.59,0.98l0.62-0.09l0.351-2.59L434.689,214.55
	L434.689,214.55z"/>
<path id="france" fill="#010202" d="M417.26,186.29l-2.21,0.54l-4.42,4.81l-1.33,0.09l-1.77-1.25l-1.15,0.27l-0.88,2.76l-6.46,0.18
	l0.18,1.43l4.42,2.94l5.13,4.1l-0.09,4.9l-2.74,4.81l5.931,2.85l6.02,0.18l1.86-2.14l3.8,0.09l1.061,0.98l3.8-0.271l1.95-2.5
	l-2.48-2.94l-0.18-1.87l0.529-2.05l-1.239-1.78l-2.12,0.62l-0.271-1.6l4.69-5.17v-3.12l-3.101-1.78l-1.59-0.27L417.26,186.29
	L417.26,186.29z"/>
<path id="netherlands" fill="#010202" d="M426.95,175.86l-4.53,2.23l0.96,0.87l0.1,2.23l-0.96-0.19l-1.06-1.65l-2.53,4.01
	l3.891,0.81l1.449,1.53l0.771,0.02l0.51-3.46l2.45-1.03L426.95,175.86L426.95,175.86z"/>
<path id="belgium" fill="#010202" d="M418.47,184.11l-0.64,1.6l6.88,4.54l1.979,0.47l0.07-2.15l-1.729-1.94h-1.061l-1.45-1.65
	L418.47,184.11L418.47,184.11z"/>
<path id="germany" fill="#010202" d="M428,175.47l3.57-0.58v-2.52l2.989-0.49l1.641,1.65l1.729,0.19l2.7-1.17l2.41,0.68l2.12,1.84
	l0.29,6.89l2.12,2.82l-2.79,0.39l-4.631,2.91l0.391,0.97l4.14,3.88l-0.29,1.94l-3.85,1.939l-3.57,0.1l-0.87,1.84h-1.83l-0.869-1.94
	l-3.181-0.78l-0.1-3.2l-2.7-1.84l0.29-2.33l-1.83-2.52l0.48-3.3l2.5-1.17L428,175.47L428,175.47z"/>
<path id="denmark" fill="#010202" d="M433.63,159.09l-4.15,4.59l-0.149,2.99l1.89,4.93l2.96-0.56l-0.37-4.03l2.04-2.28l-0.04-1.79
	l-1.439-3.73L433.63,159.09L433.63,159.09z"/>
<path id="sjlland" fill="#010202" d="M438.3,167.23l-0.93-0.04l-1.221,1.12l0.15,1.75l2.89,0.08l0.15-1.98L438.3,167.23
	L438.3,167.23z"/>
<path id="gotland" fill="#010202" d="M455.35,157.76l-2.109,1.67l1.06,2.45l1.87-1.82L455.35,157.76L455.35,157.76z"/>
<path id="switzerland" fill="#010202" d="M429.77,196.97l-4.359,4.64l0.09,0.47l1.79-0.56l1.609,2.24l2.721-0.96l1.88,1.46
	l0.77-0.44l2.32-3.64l-0.59-0.56l-2.29-0.06l-1.11-2.27L429.77,196.97L429.77,196.97z"/>
<path id="czech" fill="#010202" d="M445.29,192.46h2.97h1.46l2.37,1.69l4.39-3.65l-4.26-3.04l-4.22-2.04l-2.891,0.52l-3.92,2.52
	L445.29,192.46L445.29,192.46z"/>
<path id="slovakia" fill="#010202" d="M452.7,194.72l0.689,0.61l0.09,1.04l7.631-0.17l5.64-2.43l-0.09-2.47l-1.08,0.48l-1.55-0.83
	l-0.95-0.04l-2.5,1l-3.4-0.82L452.7,194.72L452.7,194.72z"/>
<path id="austria" fill="#010202" d="M437.49,197.71l-0.65,1.35l0.56,0.96l2.33-0.48h1.98l2.15,1.82l4.569-0.83l3.36-2l0.859-1.35
	l-0.13-1.74l-3.02-2.26l-4.05,0.04l-0.34,2.3l-4.261,2.08L437.49,197.71L437.49,197.71z"/>
<path id="hungary" fill="#010202" d="M453.6,197.19l-1.16,1.82l0.091,2.78l1.85,0.95l5.69,0.17l7.93-6.68l0.04-1.48l-0.86-0.43
	l-5.729,2.6L453.6,197.19L453.6,197.19z"/>
<path id="slovenia" fill="#010202" d="M451.66,199.58l-2.54,1.52l-4.74,1.04l0.95,2.74l3.319,0.04l3.061-2.56L451.66,199.58
	L451.66,199.58z"/>
<path id="croatia" fill="#010202" d="M452.479,202.75l-3.529,2.91h-3.58l-0.431,2.52l1.641,0.43l0.819-1.22l1.29,1.13l1.03,3.6
	l7.07,3.3l0.7-0.8l-7.17-7.4l0.729-1.35l6.811-0.26l0.689-2.17l-4.439,0.13L452.479,202.75L452.479,202.75z"/>
<path id="bosnia" fill="#010202" d="M451.66,206.53l-0.37,0.61l6.71,6.92l2.46-3.62l-0.09-1.43l-2.15-2.61L451.66,206.53
	L451.66,206.53z"/>
<path id="italy" fill="#010202" d="M429.13,204.57l-0.62,1.57l0.17,1.71l2.391,2.79l3.76-0.13l8.3,9.64l5.18,1.5l3.061,2.89
	l0.729,6.59l1.641-0.96l1.42-3.59L454.81,224l2.431-0.22l0.35-1.46l-6.85-3.28l-6.5-6.39l-2.591-3.82l-0.63-3.63l3.311-0.79
	l-0.851-2.39l-2.029-1.71l-1.75-0.08l-2.44,0.67l-2.3,3.22l-1.39,0.92l-2.15-1.32L429.13,204.57L429.13,204.57z"/>
<path id="sicily" fill="#010202" d="M449.3,230.61l-1.45-0.78l-4.95,0.78l0.171,1.34l4.449,2.24l0.67,0.73l1.171,0.17L449.3,230.61
	L449.3,230.61z"/>
<path id="malta" fill="#010202" d="M449.47,238.06l-1.67,0.34l0.06,1.85l1.5,0.5l0.671-0.56L449.47,238.06L449.47,238.06z"/>
<path id="ukraine" fill="#010202" d="M472.43,180.74l-2.899,1.63l0.72,3.08l-2.681,5.65l0.021,2.49l1.26,0.8l8.08,0.4l2.26-1.87
	l2.42,0.81l3.471,4.63l-2.54,4.56l3.02,0.88l3.95-4.55l2.26,0.41l2.101,1.46l-1.851,2.44l2.5,3.9h2.66l1.37-2.6l2.82-0.57l0.08-2.11
	l-5.24-0.81l0.16-2.271h5.08l5.479-4.39l2.42-2.11l0.4-6.66l-10.8-0.97l-4.431-6.25l-3.06-1.05l-3.71,0.16l-1.67,4.13l-7.601,0.1
	l-2.47-1.14L472.43,180.74L472.43,180.74z"/>
<path id="moldova" fill="#010202" d="M477.61,195.3l3.1,4.77l-0.26,2.7l1.109,0.05l2.63-4.45l-3.159-3.92l-1.79-0.74L477.61,195.3
	L477.61,195.3z"/>
<path id="romania" fill="#010202" d="M469.04,195.19l-0.26,1.48l-5.79,4.82l4.84,7.1l3.1,2.17h5.58l1.84-1.54l2.47-0.32l1.841,1.11
	l3.26-3.71l-0.63-1.86l-3.311-0.85l-2.26-0.11l0.11-3.18l-3-4.72L469.04,195.19L469.04,195.19z"/>
<path id="serbia_and_montenegro" fill="#010202" d="M462.41,202.13l-2.05,1.54h-1l-0.681,2.12l2.42,2.81l0.16,2.23l-3,4.24
	l0.42,1.27l1.74,0.32l1.37-1.86l0.74-0.05l1.26,1.22l3.84-1.17l-0.32-5.46L462.41,202.13L462.41,202.13z"/>
<path id="bulgaria" fill="#010202" d="M468.3,209.98l0.16,4.98l1.68,3.5l6.311,0.11l2.84-2.01l2.79-1.11l-0.681-3.18l0.631-1.7
	l-1.42-0.74l-1.95,0.16l-1.53,1.54l-6.42,0.05L468.3,209.98L468.3,209.98z"/>
<path id="albania" fill="#010202" d="M460.88,217.35v4.61l1.32,2.49l0.949-0.11l1.631-2.97l-0.95-1.33l-0.37-3.29l-1.26-1.17
	L460.88,217.35L460.88,217.35z"/>
<path id="macedonia" fill="#010202" d="M467.78,215.6l-3.37,1.11l0.16,2.86l0.79,1.01l4-1.86L467.78,215.6L467.78,215.6z"/>
<path id="greece" fill="#010202" d="M463.57,225.19l-0.11,1.33l4.63,2.33l2.21,0.85l-1.16,1.22l-2.58,0.26l-0.37,1.17l0.891,2.01
	l2.89,1.54l1.26,0.11l0.16-3.45l1.891-2.28l-5.16-6.1l0.68-2.07l1.21-0.05l1.84,1.48l1.16-0.58l0.37-2.07l5.42,0.05l0.21-3.18
	l-2.26,1.59l-6.63-0.16l-4.311,2.23L463.57,225.19L463.57,225.19z"/>
<path id="thrace" fill="#010202" d="M479.88,217.29l-0.16,3.55l3.101-0.95l1.42-0.95l-0.42-1.54l-1.471-1.17L479.88,217.29
	L479.88,217.29z"/>
<path id="crete" fill="#010202" d="M473.62,238.18l1.63,0.05l0.68,1.01h2.37l1.58-0.58l0.53,0.64l-1.05,1.38l-4.631,0.16l-0.84-1.11
	L473,239.2L473.62,238.18L473.62,238.18z"/>
</svg>
