<svg id="Layer_1" data-name="Layer 1" xmlns="http://www.w3.org/2000/svg" viewBox="0 0 171 213"><defs><style>.cls-1{fill:#7363a6;}.cls-2,.cls-5{fill:#fff;}.cls-3{fill:#695f9e;}.cls-4{fill:#231f20;}.cls-5{opacity:0.2;}</style></defs><title>Artboard 22</title><polygon class="cls-1" points="3.07 49.72 169.51 48.38 171.47 212.53 -0.07 212.41 3.07 49.72"/><ellipse class="cls-2" cx="57.65" cy="94.14" rx="22.39" ry="20.74" transform="translate(-42.17 141.27) rotate(-83.79)"/><ellipse class="cls-2" cx="98.6" cy="96.46" rx="18.11" ry="19.37" transform="translate(-24.98 35.18) rotate(-17.99)"/><path class="cls-3" d="M-.07,212.41l.15-7.88s38.38-.14,92.4-9.92S171,172.46,171,172.46l.48,40.07Z"/><path class="cls-4" d="M16.11,118.56A32.88,32.88,0,0,0,30.82,131.8a34.8,34.8,0,0,0,20.19,2s-13.27,4.85-21.74,1.07S16.11,118.56,16.11,118.56Z"/><circle class="cls-4" cx="66.3" cy="94.69" r="10.19" transform="translate(-0.25 0.18) rotate(-0.15)"/><circle class="cls-4" cx="90.88" cy="96.83" r="9.03" transform="translate(-0.26 0.24) rotate(-0.15)"/><circle class="cls-2" cx="69.79" cy="91.24" r="3.44" transform="translate(-0.24 0.19) rotate(-0.15)"/><circle class="cls-2" cx="94.31" cy="94.09" r="3.44" transform="translate(-0.25 0.25) rotate(-0.15)"/><ellipse class="cls-5" cx="88.22" cy="103.17" rx="1.17" ry="3.04" transform="translate(-42.12 141.1) rotate(-65.69)"/><ellipse class="cls-5" cx="63.51" cy="102.07" rx="1.17" ry="3.04" transform="translate(-55.65 117.94) rotate(-65.69)"/><path class="cls-1" d="M116.66,1.39c9.37,19.08.82,44.22.82,44.22l51.64-.41S159.19-9.13,116.66,1.39Z"/><path class="cls-1" d="M90.19,46l24-.37S113.93,24.85,92,26C92.17,33.64,90.19,46,90.19,46Z"/><script xmlns="" public-path="moz-extension://b924eba4-cfc0-497c-bd4b-3d288b543049/"/></svg>