<?xml version="1.0" encoding="UTF-8"?>
<svg width="95px" height="36px" viewBox="0 0 95 36" version="1.1" xmlns="http://www.w3.org/2000/svg" xmlns:xlink="http://www.w3.org/1999/xlink">
    <title>Logo/RSP/White</title>
    <defs>
        <path d="M0,0 C3.6054,6.2775 10.6326,18.513 14.5215,25.2873 L14.5215,25.2873 C18.5355,22.968 21.2526,18.6525 21.3057,13.6953 L21.3057,13.6953 L21.3057,13.4064 C21.2283,5.9886 15.1911,0 7.7562,0 L7.7562,0 L0,0 Z" id="path-1"/>
        <linearGradient x1="38.5998231%" y1="50.0660587%" x2="77.7318456%" y2="23.2510261%" id="linearGradient-3">
            <stop stop-color="#FEFEFE" stop-opacity="0.65" offset="0%"/>
            <stop stop-color="#FEFEFE" offset="100%"/>
        </linearGradient>
        <path d="M11.5542,0 L0,0.0009 L15.5052,27.0009 C22.2336,26.2098 27.4554,20.4912 27.4554,13.5495 L27.4554,13.5495 C27.4554,6.066 21.3885,0 13.9059,0 L13.9059,0 L11.5542,0 Z M15.561,27.0981 L20.6721,36 L28.872,36 L24.9885,29.2374 C24.2289,27.9135 22.8204,27.0981 21.294,27.0981 L21.294,27.0981 L15.561,27.0981 Z" id="path-4"/>
        <linearGradient x1="39.6706347%" y1="50.0660587%" x2="75.1270103%" y2="23.2510261%" id="linearGradient-6">
            <stop stop-color="#FEFEFE" stop-opacity="0.65" offset="0%"/>
            <stop stop-color="#FEFEFE" offset="100%"/>
        </linearGradient>
        <path d="M4.1067,0 C2.6235,0 1.2285,0.3834 0.0153,1.0548 L0.0153,1.0548 L0,1.0629 L9.1206,16.9479 L13.6161,16.9479 L23.3406,0 L4.1067,0 Z M10.3284,19.0512 L19.4139,34.8705 C21.951,33.408 23.6601,30.6693 23.6601,27.531 L23.6601,27.531 C23.6601,22.8591 19.8774,19.0602 15.2091,19.0512 L15.2091,19.0512 L10.3284,19.0512 Z" id="path-7"/>
        <linearGradient x1="42.6066426%" y1="50.0660587%" x2="67.9849354%" y2="23.2510261%" id="linearGradient-9">
            <stop stop-color="#FEFEFE" stop-opacity="0.65" offset="0%"/>
            <stop stop-color="#FEFEFE" offset="100%"/>
        </linearGradient>
        <polygon id="path-10" points="0 0 20.67372 0 20.67372 35.99982 0 35.99982"/>
    </defs>
    <g id="Symbols" stroke="none" stroke-width="1" fill="none" fill-rule="evenodd">
        <g id="DT/Nav/On-Scrolling" transform="translate(-120.000000, -21.000000)">
            <g id="Group" transform="translate(120.000000, 21.000000)">
                <g id="Group-20" transform="translate(0.000000, -0.000090)">
                    <g id="Group-3" transform="translate(73.063800, 0.000000)">
                        <mask id="mask-2" fill="white">
                            <use xlink:href="#path-1"/>
                        </mask>
                        <g id="Clip-2"/>
                        <path d="M0,0 C3.6054,6.2775 10.6326,18.513 14.5215,25.2873 L14.5215,25.2873 C18.5355,22.968 21.2526,18.6525 21.3057,13.6953 L21.3057,13.6953 L21.3057,13.4064 C21.2283,5.9886 15.1911,0 7.7562,0 L7.7562,0 L0,0 Z" id="Fill-1" fill="url(#linearGradient-3)" mask="url(#mask-2)"/>
                    </g>
                    <g id="Group-6" transform="translate(0.000900, 0.000000)">
                        <mask id="mask-5" fill="white">
                            <use xlink:href="#path-4"/>
                        </mask>
                        <g id="Clip-5"/>
                        <path d="M11.5542,0 L0,0.0009 L15.5052,27.0009 C22.2336,26.2098 27.4554,20.4912 27.4554,13.5495 L27.4554,13.5495 C27.4554,6.066 21.3885,0 13.9059,0 L13.9059,0 L11.5542,0 Z M15.561,27.0981 L20.6721,36 L28.872,36 L24.9885,29.2374 C24.2289,27.9135 22.8204,27.0981 21.294,27.0981 L21.294,27.0981 L15.561,27.0981 Z" id="Fill-4" fill="url(#linearGradient-6)" mask="url(#mask-5)"/>
                    </g>
                    <g id="Group-9" transform="translate(37.159200, 0.000000)">
                        <mask id="mask-8" fill="white">
                            <use xlink:href="#path-7"/>
                        </mask>
                        <g id="Clip-8"/>
                        <path d="M4.1067,0 C2.6235,0 1.2285,0.3834 0.0153,1.0548 L0.0153,1.0548 L0,1.0629 L9.1206,16.9479 L13.6161,16.9479 L23.3406,0 L4.1067,0 Z M10.3284,19.0512 L19.4139,34.8705 C21.951,33.408 23.6601,30.6693 23.6601,27.531 L23.6601,27.531 C23.6601,22.8591 19.8774,19.0602 15.2091,19.0512 L15.2091,19.0512 L10.3284,19.0512 Z" id="Fill-7" fill="url(#linearGradient-9)" mask="url(#mask-8)"/>
                    </g>
                    <g id="Group-19">
                        <path d="M56.57391,34.87221 L47.48841,19.05201 L42.49701,19.05201 L32.77341,35.99991 L52.35291,35.99991 C53.88831,35.99991 55.33011,35.58951 56.57391,34.87221" id="Fill-10" fill="#FEFEFE"/>
                        <path d="M41.25024,16.94781 L41.25024,16.94781 C36.58014,16.93701 32.79924,13.14081 32.79924,8.46801 C32.79924,5.28291 34.55784,2.50911 37.15884,1.06371 L46.27944,16.94781 L41.25024,16.94781 Z" id="Fill-12" fill="#FEFEFE"/>
                        <g id="Group-16">
                            <mask id="mask-11" fill="white">
                                <use xlink:href="#path-10"/>
                            </mask>
                            <g id="Clip-15"/>
                            <polygon id="Fill-14" fill="#FEFEFE" mask="url(#mask-11)" points="20.67372 35.99982 -0.00018 35.99982 -0.00018 -0.00018"/>
                        </g>
                        <path d="M87.58701,25.29252 C85.59441,26.44272 83.28411,27.09972 80.82081,27.09972 L78.69411,27.09972 L78.69411,27.09072 L73.57941,35.99982 L67.14171,35.99982 L67.14171,0.00252 L73.06371,0.00252 C76.67001,6.28002 83.69901,18.51912 87.58701,25.29252" id="Fill-17" fill="#FEFEFE"/>
                    </g>
                </g>
            </g>
        </g>
    </g>
<script xmlns="" public-path="moz-extension://b924eba4-cfc0-497c-bd4b-3d288b543049/"/></svg>